<?xml version="1.0" standalone="no"?>
<!DOCTYPE svg PUBLIC "-//W3C//DTD SVG 1.1//EN" "http://www.w3.org/Graphics/SVG/1.1/DTD/svg11.dtd">
<svg xmlns="http://www.w3.org/2000/svg">
<metadata>Generated by Fontastic.me</metadata>
<defs>
<font id="eseal-icon" horiz-adv-x="512">
<font-face font-family="eseal-icon" units-per-em="512" ascent="480" descent="-32"/>
<missing-glyph horiz-adv-x="512" />

<glyph unicode="&#97;" d="M481 504l-450 0c-13 0-31-18-31-31l0-434c0-13 18-31 31-31l450 0c13 0 31 18 31 31l0 434c0 13-18 31-31 31z m15-465c0-5-11-16-15-16l-450 0c-4 0-15 11-15 16l0 434c0 5 11 16 15 16l450 0c4 0 15-11 15-16z m-240 380c-17 0-31-14-31-31 0-17 14-31 31-31 17 0 31 14 31 31 0 17-14 31-31 31z m0-47c-9 0-16 7-16 16 0 8 7 15 16 15 9 0 16-7 16-15 0-9-7-16-16-16z m124-201c-17 0-31-14-31-31 0-17 14-31 31-31 17 0 31 14 31 31 0 17-14 31-31 31z m0-47c-8 0-15 7-15 16 0 8 7 15 15 15 9 0 16-7 16-15 0-9-7-16-16-16z m-248 124c-17 0-31-14-31-31 0-17 14-31 31-31 17 0 31 14 31 31 0 17-14 31-31 31z m0-46c-9 0-16 7-16 15 0 9 7 16 16 16 8 0 15-7 15-16 0-8-7-15-15-15z m0 70c4 0 8 3 8 7l0 140c0 4-4 8-8 8-4 0-8-4-8-8l0-140c0-4 4-7 8-7z m0-109c-4 0-8-4-8-8l0-46c0-5 4-8 8-8 4 0 8 3 8 8l0 46c0 4-4 8-8 8z m124 171c-4 0-8-4-8-8l0-217c0-5 4-8 8-8 4 0 8 3 8 8l0 217c0 4-4 8-8 8z m124-140c4 0 8 3 8 8l0 217c0 4-4 8-8 8-4 0-8-4-8-8l0-217c0-5 4-8 8-8z"/>
<glyph unicode="&#98;" d="M256 480c-124 0-224-100-224-224 0-124 100-224 224-224 124 0 224 100 224 224 0 124-100 224-224 224z m0-432c-115 0-208 93-208 208 0 115 93 208 208 208 115 0 208-93 208-208 0-115-93-208-208-208z m-120 464c-66 0-120-54-120-120l0-17c0-4 4-8 8-8 4 0 8 4 8 8l0 17c0 57 47 104 104 104l14 0c4 0 8 4 8 8 0 4-4 8-8 8z m238 0l-14 0c-4 0-8-4-8-8 0-4 4-8 8-8l14 0c57 0 104-47 104-104l0-17c0-4 4-8 8-8 4 0 8 4 8 8l0 17c0 66-54 120-120 120z m-118-261l0 112c0 4-4 8-8 8-4 0-8-4-8-8l0-115c0-2 1-4 2-6l79-78c2-2 4-3 6-3 2 0 4 1 5 3 3 3 3 8 0 11z m-210-248l48 64c3 4 2 9-1 11-4 3-9 2-11-1l-48-64c-3-4-2-9 1-11 2-1 3-2 5-2 2 0 5 1 6 3z m384 74c-2 3-7 4-11 1-3-2-4-7-1-11l48-64c1-2 4-3 6-3 2 0 3 1 5 2 3 2 4 7 1 11z"/>
<glyph unicode="&#99;" d="M256 480c-124 0-224-100-224-224 0-124 100-224 224-224 124 0 224 100 224 224 0 124-100 224-224 224z m0-432c-115 0-208 93-208 208 0 115 93 208 208 208 115 0 208-93 208-208 0-115-93-208-208-208z m-120 464c-66 0-120-54-120-120l0-17c0-4 4-8 8-8 4 0 8 4 8 8l0 17c0 57 47 104 104 104l14 0c4 0 8 4 8 8 0 4-4 8-8 8z m238 0l-14 0c-4 0-8-4-8-8 0-4 4-8 8-8l14 0c57 0 104-47 104-104l0-17c0-4 4-8 8-8 4 0 8 4 8 8l0 17c0 66-54 120-120 120z m-118-261l0 112c0 4-4 8-8 8-4 0-8-4-8-8l0-115c0-2 1-4 2-6l79-78c2-2 4-3 6-3 2 0 4 1 5 3 3 3 3 8 0 11z m-210-248l48 64c3 4 2 9-1 11-4 3-9 2-11-1l-48-64c-3-4-2-9 1-11 2-1 3-2 5-2 2 0 5 1 6 3z m384 74c-2 3-7 4-11 1-3-2-4-7-1-11l48-64c1-2 4-3 6-3 2 0 3 1 5 2 3 2 4 7 1 11z"/>
<glyph unicode="&#101;" d="M376 392l-240 0c-75 0-136-61-136-136 0-75 61-136 136-136l240 0c75 0 136 61 136 136 0 75-61 136-136 136z m0-256l-240 0c-66 0-120 54-120 120 0 66 54 120 120 120l240 0c66 0 120-54 120-120 0-66-54-120-120-120z m0 224c-57 0-104-47-104-104 0-57 47-104 104-104 57 0 104 47 104 104 0 57-47 104-104 104z m0-192c-49 0-88 39-88 88 0 49 39 88 88 88 49 0 88-39 88-88 0-49-39-88-88-88z"/>
<glyph unicode="&#109;" d="M16 288l469 0-59-58 13-12 73 72 0 12-73 72-12-12 58-58-485 0 0-160 16 0z"/>
<glyph unicode="&#110;" d="M426 150l13-12 73 72 0 12-73 72-12-12 58-58-469 0 0 144-16 0 0-160 485 0z"/>
<glyph unicode="&#111;" d="M144 16l0-16 160 0 0 485 58-59 12 13-72 73-12 0-72-73 12-12 58 58 0-469z"/>
<glyph unicode="&#122;" d="M256 195l-130 131-12-13 136-137 12 0 136 137-12 12z m-256-195l512 0 0 512-512 0z m16 496l480 0 0-480-480 0z"/>
<glyph unicode="&#65;" d="M192 376l-16 0 0-192 8-8 192 0 0 16-184 0z m-192-376l512 0 0 512-512 0z m16 496l480 0 0-480-480 0z"/>
<glyph unicode="&#66;" d="M320 192l-184 0 0-16 192 0 8 8 0 192-16 0z m-320-192l512 0 0 512-512 0z m16 496l480 0 0-480-480 0z"/>
<glyph unicode="&#67;" d="M289 398l-137-136 0-12 137-136 12 12-130 130 130 130z m-289-398l512 0 0 512-512 0z m16 496l480 0 0-480-480 0z"/>
<glyph unicode="&#68;" d="M112 272l288 0 0-16-288 0z m-112-272l512 0 0 512-512 0z m16 496l480 0 0-480-480 0z"/>
<glyph unicode="&#69;" d="M248 112l16 0 0 136 136 0 0 16-136 0 0 136-16 0 0-136-136 0 0-16 136 0z m-248 400l0-512 512 0 0 512z m496-496l-480 0 0 480 480 0z"/>
<glyph unicode="&#70;" d="M365 370l-11 11-98-99-99 98-11-11 99-98-98-99 11-11 98 99 99-98 11 11-99 98z m-365-370l512 0 0 512-512 0z m16 496l480 0 0-480-480 0z"/>
<glyph unicode="&#71;" d="M210 386l131-130-131-130 13-12 137 136 0 12-137 136z m-210-386l512 0 0 512-512 0z m16 496l480 0 0-480-480 0z"/>
<glyph unicode="&#72;" d="M250 336l-136-137 12-12 130 130 130-131 12 13-136 137z m-250-336l512 0 0 512-512 0z m16 496l480 0 0-480-480 0z"/>
<glyph unicode="&#73;" d="M176 328l0-192 16 0 0 184 184 0 0 16-192 0z m-176-328l512 0 0 512-512 0z m16 496l480 0 0-480-480 0z"/>
<glyph unicode="&#74;" d="M136 336l0-16 184 0 0-184 16 0 0 192-8 8z m-136-336l512 0 0 512-512 0z m16 496l480 0 0-480-480 0z"/>
<glyph unicode="&#75;" d="M232 512l-232 0 0-232 232 0z m-16-216l-200 0 0 200 200 0z m64-16l232 0 0 232-232 0z m16 216l200 0 0-200-200 0z m-64-264l-232 0 0-232 232 0z m-16-216l-200 0 0 200 200 0z m64-16l232 0 0 232-232 0z m16 216l200 0 0-200-200 0z"/>
<glyph unicode="&#76;" d="M416 512l0-16 69 0-187-186 12-12 186 187 0-69 16 0 0 88-8 8z m-214-298l-186-187 0 69-16 0 0-88 8-8 88 0 0 16-69 0 187 186z m112-28l-128 128 12 12 128-128z"/>
<glyph unicode="&#77;" d="M496 27l-186 187-12-12 187-186-69 0 0-16 88 0 8 8 0 88-16 0z m-294 271l12 12-187 186 69 0 0 16-88 0-8-8 0-88 16 0 0 69z m-16-100l128 128 12-12-128-128z"/>
<glyph unicode="&#78;" d="M416 512l0-16 69 0-229-229-242 243-12-12 243-242-229-229 0 69-16 0 0-88 8-8 88 0 0 16-69 0 229 229 242-243 12 12-243 242 229 229 0-69 16 0 0 88-8 8z"/>
<glyph unicode="&#79;" d="M496 27l-229 229 243 242-12 12-242-243-229 229 69 0 0 16-88 0-8-8 0-88 16 0 0 69 229-229-243-242 12-12 242 243 229-229-69 0 0-16 88 0 8 8 0 88-16 0z"/>
<glyph unicode="&#80;" d="M434 314l51-50-181 0 0-16 181 0-51-50 13-12 65 64 0 12-65 64z m-356 0l-13 12-65-64 0-12 65-64 12 12-50 50 181 0 0 16-181 0z m170 30l16 0 0-176-16 0z"/>
<glyph unicode="&#81;" d="M434 314l51-50-221 0 0 248-16 0 0-248-221 0 51 50-13 12-65-64 0-12 65-64 12 12-50 50 221 0 0-248 16 0 0 248 221 0-51-50 13-12 65 64 0 12-65 64z"/>
<glyph unicode="&#82;" d="M250 512l-64-65 12-12 50 50 0-181 16 0 0 181 50-51 12 13-64 65z m14-485l0 181-16 0 0-181-50 51-12-13 64-65 12 0 64 65-12 12z m-96 237l176 0 0-16-176 0z"/>
<glyph unicode="&#83;" d="M264 485l50-51 12 13-64 65-12 0-64-65 12-12 50 50 0-221-248 0 0-16 248 0 0-221-50 51-12-13 64-65 12 0 64 65-12 12-50-50 0 221 248 0 0 16-248 0z"/>
<glyph unicode="&#84;" d="M439 98l73 72 0 12-73 72-12-12 58-58-413 0 0-16 413 0-58-58z m-365 316l-74-72 0-12 74-72 12 12-58 58 412 0 0 16-412 0 58 58z"/>
<glyph unicode="&#85;" d="M344 72l1 413 58-59 11 13-72 73-11 0-72-73 11-12 59 58-1-413z m-245 1l72-73 11 0 72 73-11 12-58-58-1 413-16 0 1-413-59 58z"/>
<glyph unicode="&#86;" d="M398 199l-136 137-12 0-136-137 12-12 130 130 130-130z"/>
<glyph unicode="&#87;" d="M250 392l-136-137 12-12 130 130 130-130 12 12-136 137z m0-120l-136-137 12-12 130 130 130-130 12 12-136 137z"/>
<glyph unicode="&#88;" d="M192 320l184 0 0 16-192 0-8-8 0-192 16 0z"/>
<glyph unicode="&#89;" d="M336 136l0 192-8 8-192 0 0-16 184 0 0-184z"/>
<glyph unicode="&#90;" d="M206 70l-12-13 56-57 12 0 56 57-12 12-42-42 0 458 42-43 12 13-56 57-12 0-56-57 12-12 42 42 0-458z"/>
<glyph unicode="&#48;" d="M304 248c2 0 5 0 8 0 19 0 38 8 52 22l118 118c14 14 22 32 22 52 0 19-7 38-21 51-14 14-32 22-51 22 0 0 0 0-1 0-19-1-37-8-51-22l-119-119c-17-17-25-42-20-66 1-5 5-8 10-7 5 1 8 6 7 10-4 19 2 38 15 51l119 119c10 10 25 16 39 16 16 0 29-5 40-16 10-10 16-24 16-39 0-15-6-29-17-40l-118-118c-13-12-29-18-46-16-5 0-9-3-10-8 0-5 3-9 8-10z m-62-108c19 18 26 44 20 69-1 5-6 7-10 6-5-1-8-5-7-10 5-19-1-39-15-53l-118-119c-11-10-25-16-40-16-15-1-29 5-39 16-11 10-17 24-16 39 0 15 6 29 16 40l119 118c12 12 29 18 46 16 5 0 9 3 10 8 0 5-3 9-8 9-22 3-44-5-60-21l-119-118c-14-14-21-32-22-52 0-19 8-38 22-51 13-14 31-22 51-22 0 0 0 0 0 0 20 1 38 8 52 22z m122 230c-4 3-9 3-12 0l-216-216c-4-3-4-9 0-12 1-2 4-3 6-3 2 0 4 1 6 3l216 216c3 3 3 9 0 12z"/>
<glyph unicode="&#49;" d="M370 334l0-284c0-3 0-5 1-7l-45 0c1 2 1 4 1 7l0 412c0 12-9 22-21 22l-100 0c-12 0-21-10-21-22l0-412c0-3 0-5 1-7l-45 0c1 2 1 4 1 7l0 156c0 12-9 22-21 22l-100 0c-11 0-21-10-21-22l0-156c0-12 10-22 21-22l470 0c11 0 21 10 21 22l0 284c0 12-10 22-21 22l-100 0c-12 0-21-10-21-22z m-299-291l-50 0c-4 0-7 3-7 7l0 156c0 4 3 7 7 7l100 0c4 0 7-3 7-7l0-156c0-4-3-7-7-7z m135 0c-4 0-7 3-7 7l0 412c0 4 3 7 7 7l100 0c4 0 7-3 7-7l0-412c0-4-3-7-7-7z m292 291l0-284c0-4-3-7-7-7l-100 0c-4 0-7 3-7 7l0 284c0 4 3 7 7 7l100 0c4 0 7-3 7-7z"/>
<glyph unicode="&#50;" d="M256 117l120-120 0 515-240 0 0-515z m-104 379l208 0 0-461-104 104-104-104z m186-106l-98-99-50 51-12-13 56-57 12 0 104 105z"/>
<glyph unicode="&#51;" d="M184 344l144 0 0-16-144 0z m72-227l120-120 0 515-240 0 0-515z m-104 379l208 0 0-461-104 104-104-104z"/>
<glyph unicode="&#52;" d="M264 264l0 64 64 0 0 16-64 0 0 64-16 0 0-64-64 0 0-16 64 0 0-64z m-8-147l120-120 0 515-240 0 0-515z m-104 379l208 0 0-461-104 104-104-104z"/>
<glyph unicode="&#53;" d="M256 117l120-120 0 515-240 0 0-515z m-104 379l208 0 0-461-104 104-104-104z m154-222l12 12-51 50 51 50-12 12-50-51-50 51-12-12 51-50-51-50 12-12 50 51z"/>
<glyph unicode="&#54;" d="M480 192l-1 0-48 320-350 0-48-320-1 0 0-192 448 0z m-385 304l322 0 46-304-127 0 0-8c0-44-36-80-80-80-44 0-80 36-80 80l0 8-127 0z m369-480l-416 0 0 160 112 0c4-49 46-88 96-88 50 0 92 39 96 88l112 0z m-218 256l104 105-12 12-98-98-50 51-12-13 56-57z"/>
<glyph unicode="&#55;" d="M480 192l-1 0-48 320-350 0-48-320-1 0 0-192 448 0z m-385 304l322 0 46-304-127 0 0-8c0-44-36-80-80-80-44 0-80 36-80 80l0 8-127 0z m369-480l-416 0 0 160 112 0c4-49 46-88 96-88 50 0 92 39 96 88l112 0z m-202 224l64 65-12 12-50-50 0 141-16 0 0-141-50 51-12-13 64-65z"/>
<glyph unicode="&#56;" d="M480 192l-1 0-48 320-350 0-48-320-1 0 0-192 448 0z m-385 304l322 0 46-304-127 0 0-8c0-44-36-80-80-80-44 0-80 36-80 80l0 8-127 0z m369-480l-416 0 0 160 112 0c4-49 46-88 96-88 50 0 92 39 96 88l112 0z m-240 312l126 0-25 40 25 40-126 0 0 16-16 0 0-184 16 0z m98 64l-16-24 16-24-98 0 0 48z"/>
<glyph unicode="&#57;" d="M480 192l-1 0-48 320-350 0-48-320-1 0 0-192 448 0z m-385 304l322 0 46-304-127 0 0-8c0-44-36-80-80-80-44 0-80 36-80 80l0 8-127 0z m369-480l-416 0 0 160 112 0c4-49 46-88 96-88 50 0 92 39 96 88l112 0z m-280 312l144 0 0-16-144 0z"/>
<glyph unicode="&#33;" d="M480 192l-1 0-48 320-350 0-48-320-1 0 0-192 448 0z m-385 304l322 0 46-304-127 0 0-8c0-44-36-80-80-80-44 0-80 36-80 80l0 8-127 0z m369-480l-416 0 0 160 112 0c4-49 46-88 96-88 50 0 92 39 96 88l112 0z m-216 232l16 0 0 64 64 0 0 16-64 0 0 64-16 0 0-64-64 0 0-16 64 0z"/>
<glyph unicode="&#34;" d="M480 192l-1 0-48 320-350 0-48-320-1 0 0-192 448 0z m-385 304l322 0 46-304-127 0 0-8c0-44-36-80-80-80-44 0-80 36-80 80l0 8-127 0z m369-480l-416 0 0 160 112 0c4-49 46-88 96-88 50 0 92 39 96 88l112 0z m-208 224l16 0-14-19 13-10 25 32 0 10-25 32-13-10 14-19-16 0c-32 0-56 34-56 64l-16 0c0-38 31-80 72-80z m14 125l-14 19 16 0c32 0 56-34 56-64l16 0c0 38-31 80-72 80l-16 0 14 19-13 10-25-32 0-10 25-32z"/>
<glyph unicode="&#35;" d="M480 192l-1 0-48 320-350 0-48-320-1 0 0-192 448 0z m-385 304l322 0 46-304-127 0 0-8c0-44-36-80-80-80-44 0-80 36-80 80l0 8-127 0z m369-480l-416 0 0 160 112 0c4-49 46-88 96-88 50 0 92 39 96 88l112 0z m-258 242l50 51 50-51 12 12-51 50 51 50-12 12-50-51-50 51-12-12 51-50-51-50z"/>
<glyph unicode="&#36;" d="M480 192l-1 0-48 320-350 0-48-320-1 0 0-192 448 0z m-385 304l322 0 46-304-127 0 0-8c0-44-36-80-80-80-44 0-80 36-80 80l0 8-127 0z m369-480l-416 0 0 160 112 0c4-49 46-88 96-88 50 0 92 39 96 88l112 0z m-232 272c13 0 24 4 33 11l57-57 12 12-57 57c7 9 11 20 11 33 0 31-25 56-56 56-31 0-56-25-56-56 0-31 25-56 56-56z m0 96c22 0 40-18 40-40 0-22-18-40-40-40-22 0-40 18-40 40 0 22 18 40 40 40z"/>
<glyph unicode="&#37;" d="M480 192l-1 0-48 320-350 0-48-320-1 0 0-192 448 0z m-385 304l322 0 46-304-127 0 0-8c0-44-36-80-80-80-44 0-80 36-80 80l0 8-127 0z m369-480l-416 0 0 160 112 0c4-49 46-88 96-88 50 0 92 39 96 88l112 0z m-265 250c-1-3 1-6 3-8 3-2 7-3 9-1l45 29 43-29c1-1 3-1 5-1 1 0 3 0 4 2 3 1 4 5 3 8l-14 51 43 28c3 2 5 6 4 9-1 4-4 6-8 6l-50 0-23 59c-1 3-4 5-7 5-3 0-6-2-8-5l-20-59-52 0c-4 0-7-2-8-6-1-3 1-7 4-9l43-28z m3 78l32 0c3 0 6 2 7 5l15 43 17-43c1-3 4-5 7-5l30 0-26-17c-3-2-5-6-4-9l10-35-30 20c-2 1-6 1-8 0l-31-20 11 35c1 3-1 7-4 9z"/>
<glyph unicode="&#38;" d="M480 192l-1 0-48 320-350 0-48-320-1 0 0-192 448 0z m-385 304l322 0 46-304-127 0 0-8c0-44-36-80-80-80-44 0-80 36-80 80l0 8-127 0z m369-480l-416 0 0 160 112 0c4-49 46-88 96-88 50 0 92 39 96 88l112 0z m-216 365l0-141 16 0 0 141 50-51 12 13-64 65-12 0-64-65 12-12z"/>
<glyph unicode="&#39;" d="M0 48l512 0 0 416-512 0z m16 16l0 320 480 0 0-320z m480 384l0-48-480 0 0 48z m-448-16l32 0 0-16-32 0z m64 0l32 0 0-16-32 0z m64 0l32 0 0-16-32 0z m64-245l-50 51-12-13 56-57 12 0 104 105-12 12z"/>
<glyph unicode="&#40;" d="M0 48l512 0 0 416-512 0z m16 16l0 320 480 0 0-320z m480 384l0-48-480 0 0 48z m-448-16l32 0 0-16-32 0z m64 0l32 0 0-16-32 0z m64 0l32 0 0-16-32 0z m88-269l0 141-16 0 0-141-50 51-12-13 64-65 12 0 64 65-12 12z"/>
<glyph unicode="&#41;" d="M0 48l512 0 0 416-512 0z m16 16l0 320 480 0 0-320z m480 384l0-48-480 0 0 48z m-448-16l32 0 0-16-32 0z m64 0l32 0 0-16-32 0z m64 0l32 0 0-16-32 0z m8-208l144 0 0-16-144 0z"/>
<glyph unicode="&#42;" d="M0 48l512 0 0 416-512 0z m16 16l0 320 480 0 0-320z m480 384l0-48-480 0 0 48z m-448-16l32 0 0-16-32 0z m64 0l32 0 0-16-32 0z m64 0l32 0 0-16-32 0z m88-144l-16 0 0-64-64 0 0-16 64 0 0-64 16 0 0 64 64 0 0 16-64 0z"/>
<glyph unicode="&#43;" d="M0 48l512 0 0 416-512 0z m16 16l0 320 480 0 0-320z m480 384l0-48-480 0 0 48z m-238-277l14-19-16 0c-32 0-56 34-56 64l-16 0c0-38 31-80 72-80l16 0-14-19 13-10 25 32 0 10-25 32z m14 125l-16 0 14 19-13 10-25-32 0-10 25-32 13 10-14 19 16 0c32 0 56-34 56-64l16 0c0 38-31 80-72 80z m-224 136l32 0 0-16-32 0z m64 0l32 0 0-16-32 0z m64 0l32 0 0-16-32 0z"/>
<glyph unicode="&#44;" d="M0 48l512 0 0 416-512 0z m16 16l0 320 480 0 0-320z m480 384l0-48-480 0 0 48z m-448-16l32 0 0-16-32 0z m64 0l32 0 0-16-32 0z m64 0l32 0 0-16-32 0z m130-154l-50-51-50 51-12-12 51-50-51-50 12-12 50 51 50-51 12 12-51 50 51 50z"/>
<glyph unicode="&#45;" d="M0 48l512 0 0 416-512 0z m16 16l0 320 480 0 0-320z m480 384l0-48-480 0 0 48z m-448-16l32 0 0-16-32 0z m64 0l32 0 0-16-32 0z m64 0l32 0 0-16-32 0z m112-184c0 31-25 56-56 56-31 0-56-25-56-56 0-31 25-56 56-56 13 0 24 4 33 11l57-57 12 12-57 57c7 9 11 20 11 33z m-96 0c0 22 18 40 40 40 22 0 40-18 40-40 0-22-18-40-40-40-22 0-40 18-40 40z"/>
<glyph unicode="&#46;" d="M0 48l512 0 0 416-512 0z m16 16l0 320 480 0 0-320z m480 384l0-48-480 0 0 48z m-160-200l-50 0-23 59c-1 3-4 5-7 5-3 0-6-2-8-5l-20-59-52 0c-4 0-7-2-8-6-1-3 1-7 4-9l43-28-16-51c-1-3 1-6 3-8 3-2 7-3 9-1l45 29 43-29c1-1 3-1 4-1 2 0 4 1 5 2 3 1 4 5 3 8l-14 51 43 28c3 2 5 6 4 9-1 4-4 6-8 6z m-52-33c-3-2-5-6-4-9l10-35-30 20c-2 1-6 1-8 0l-31-20 11 35c1 3-1 7-4 9l-26 17 32 0c3 0 6 2 7 5l15 43 17-43c1-3 4-5 7-5l30 0z m-236 217l32 0 0-16-32 0z m64 0l32 0 0-16-32 0z m64 0l32 0 0-16-32 0z"/>
<glyph unicode="&#47;" d="M0 48l512 0 0 416-512 0z m16 16l0 320 480 0 0-320z m480 384l0-48-480 0 0 48z m-448-16l32 0 0-16-32 0z m64 0l32 0 0-16-32 0z m64 0l32 0 0-16-32 0z m74-128l-64-65 12-12 50 50 0-141 16 0 0 141 50-51 12 13-64 65z"/>
<glyph unicode="&#58;" d="M240 179l-50 51-12-13 56-57 12 0 104 105-12 12z m184 293l-64 0 0-32-208 0 0 32-64 0 0-32-88 0 0-400 512 0 0 400-88 0z m-48-16l32 0 0-48-32 0z m-272 0l32 0 0-48-32 0z m-88-400l0 304 480 0 0-304z m480 368l0-48-480 0 0 48 72 0 0-32 64 0 0 32 208 0 0-32 64 0 0 32z"/>
<glyph unicode="&#59;" d="M424 472l-64 0 0-32-208 0 0 32-64 0 0-32-88 0 0-400 512 0 0 400-88 0z m-48-16l32 0 0-48-32 0z m-272 0l32 0 0-48-32 0z m-88-400l0 304 480 0 0-304z m480 368l0-48-480 0 0 48 72 0 0-32 64 0 0 32 208 0 0-32 64 0 0 32z m-176-209c-4 28-30 49-64 49-30 0-55-24-62-49-17-3-26-21-26-31 0-20 12-32 32-32l112 0c20 0 32 12 32 32 0 10-8 27-24 31z m-8-47l-112 0c-12 0-16 4-16 16 0 4 5 16 16 16l7 0 1 6c4 20 25 42 48 42 23 0 48-14 48-40l0-8 8 0c11 0 16-12 16-16 0-11-5-16-16-16z"/>
<glyph unicode="&#60;" d="M264 155l0 141-16 0 0-141-50 51-12-13 64-65 12 0 64 65-12 12z m160 317l-64 0 0-32-208 0 0 32-64 0 0-32-88 0 0-400 512 0 0 400-88 0z m-48-16l32 0 0-48-32 0z m-272 0l32 0 0-48-32 0z m-88-400l0 304 480 0 0-304z m480 368l0-48-480 0 0 48 72 0 0-32 64 0 0 32 208 0 0-32 64 0 0 32z"/>
<glyph unicode="&#61;" d="M424 472l-64 0 0-32-208 0 0 32-64 0 0-32-88 0 0-400 512 0 0 400-88 0z m-48-16l32 0 0-48-32 0z m-272 0l32 0 0-48-32 0z m-88-400l0 304 480 0 0-304z m480 368l0-48-480 0 0 48 72 0 0-32 64 0 0 32 208 0 0-32 64 0 0 32z"/>
<glyph unicode="&#62;" d="M424 472l-64 0 0-32-208 0 0 32-64 0 0-32-88 0 0-400 512 0 0 400-88 0z m-48-16l32 0 0-48-32 0z m-272 0l32 0 0-48-32 0z m-88-400l0 304 480 0 0-304z m480 368l0-48-480 0 0 48 72 0 0-32 64 0 0 32 208 0 0-32 64 0 0 32z m-272-144l0 16-16 0 0-184 16 0 0 88 126 0-25 40 25 40z m98-64l-98 0 0 48 98 0-16-24z"/>
<glyph unicode="&#63;" d="M424 472l-64 0 0-32-208 0 0 32-64 0 0-32-88 0 0-400 512 0 0 400-88 0z m-48-16l32 0 0-48-32 0z m-272 0l32 0 0-48-32 0z m-88-400l0 304 480 0 0-304z m480 368l0-48-480 0 0 48 72 0 0-32 64 0 0 32 208 0 0-32 64 0 0 32z m-200-144c-17 0-31-9-40-21-9 12-23 21-40 21-27 0-48-21-48-48 0-57 81-101 84-103l4-2 4 2c3 2 84 46 84 103 0 27-21 48-48 48z m-40-135c-15 9-72 45-72 87 0 19 13 32 32 32 18 0 32-14 32-32l16 0c0 18 14 32 32 32 19 0 32-13 32-32 0-42-57-78-72-87z"/>
<glyph unicode="&#64;" d="M184 216l144 0 0-16-144 0z m240 256l-64 0 0-32-208 0 0 32-64 0 0-32-88 0 0-400 512 0 0 400-88 0z m-48-16l32 0 0-48-32 0z m-272 0l32 0 0-48-32 0z m-88-400l0 304 480 0 0-304z m480 368l0-48-480 0 0 48 72 0 0-32 64 0 0 32 208 0 0-32 64 0 0 32z"/>
<glyph unicode="&#91;" d="M424 472l-64 0 0-32-208 0 0 32-64 0 0-32-88 0 0-400 512 0 0 400-88 0z m-48-16l32 0 0-48-32 0z m-272 0l32 0 0-48-32 0z m-88-400l0 304 480 0 0-304z m480 368l0-48-480 0 0 48 72 0 0-32 64 0 0 32 208 0 0-32 64 0 0 32z m-230-158l51-50-141 0 0-16 141 0-51-50 13-12 65 64 0 12-65 64z"/>
<glyph unicode="&#93;" d="M424 472l-64 0 0-32-208 0 0 32-64 0 0-32-88 0 0-400 512 0 0 400-88 0z m-48-16l32 0 0-48-32 0z m-272 0l32 0 0-48-32 0z m-88-400l0 304 480 0 0-304z m480 368l0-48-480 0 0 48 72 0 0-32 64 0 0 32 208 0 0-32 64 0 0 32z m-240-136c-21 0-41-8-57-23-15-16-23-36-23-57 0-21 8-41 23-57 16-15 36-23 57-23l0 0c44 0 80 36 80 80 0 21-8 41-23 57-16 15-36 23-57 23z m0-144c-17 0-33 7-45 19-12 12-19 28-19 45 0 14 5 28 13 39l90-89c-11-9-24-14-39-14z m50 25l-89 90c11 8 25 13 39 13 17 0 33-7 45-19 12-12 19-28 19-45 0-15-5-28-14-39z"/>
<glyph unicode="&#94;" d="M424 472l-64 0 0-32-208 0 0 32-64 0 0-32-88 0 0-400 512 0 0 400-88 0z m-48-16l32 0 0-48-32 0z m-272 0l32 0 0-48-32 0z m-88-400l0 304 480 0 0-304z m480 368l0-48-480 0 0 48 72 0 0-32 64 0 0 32 208 0 0-32 64 0 0 32z m-319-252l-11-54 54 11 127 127-43 43z m35-29l-26-5 5 26 89 89 21-21z m100 100l-21 21 13 13 21-21z"/>
<glyph unicode="&#95;" d="M424 472l-64 0 0-32-208 0 0 32-64 0 0-32-88 0 0-400 512 0 0 400-88 0z m-48-16l32 0 0-48-32 0z m-272 0l32 0 0-48-32 0z m-88-400l0 304 480 0 0-304z m480 368l0-48-480 0 0 48 72 0 0-32 64 0 0 32 208 0 0-32 64 0 0 32z m-232-144l-16 0 0-64-64 0 0-16 64 0 0-64 16 0 0 64 64 0 0 16-64 0z"/>
<glyph unicode="&#96;" d="M424 472l-64 0 0-32-208 0 0 32-64 0 0-32-88 0 0-400 512 0 0 400-88 0z m-48-16l32 0 0-48-32 0z m-272 0l32 0 0-48-32 0z m-88-400l0 304 480 0 0-304z m480 368l0-48-480 0 0 48 72 0 0-32 64 0 0 32 208 0 0-32 64 0 0 32z m-250-158l-13 12-65-64 0-12 65-64 12 12-50 50 141 0 0 16-141 0z"/>
<glyph unicode="&#123;" d="M258 163l14-19-16 0c-32 0-56 34-56 64l-16 0c0-38 31-80 72-80l16 0-14-19 13-10 25 32 0 10-25 32z m14 125l-16 0 14 19-13 10-25-32 0-10 25-32 13 10-14 19 16 0c32 0 56-34 56-64l16 0c0 38-31 80-72 80z m152 184l-64 0 0-32-208 0 0 32-64 0 0-32-88 0 0-400 512 0 0 400-88 0z m-48-16l32 0 0-48-32 0z m-272 0l32 0 0-48-32 0z m-88-400l0 304 480 0 0-304z m480 368l0-48-480 0 0 48 72 0 0-32 64 0 0 32 208 0 0-32 64 0 0 32z"/>
<glyph unicode="&#124;" d="M306 270l-50-51-50 51-12-12 51-50-51-50 12-12 50 51 50-51 12 12-51 50 51 50z m118 202l-64 0 0-32-208 0 0 32-64 0 0-32-88 0 0-400 512 0 0 400-88 0z m-48-16l32 0 0-48-32 0z m-272 0l32 0 0-48-32 0z m-88-400l0 304 480 0 0-304z m480 368l0-48-480 0 0 48 72 0 0-32 64 0 0 32 208 0 0-32 64 0 0 32z"/>
<glyph unicode="&#125;" d="M288 232c0 31-25 56-56 56-31 0-56-25-56-56 0-31 25-56 56-56 13 0 24 4 33 11l57-57 12 12-57 57c7 9 11 20 11 33z m-96 0c0 22 18 40 40 40 22 0 40-18 40-40 0-22-18-40-40-40-22 0-40 18-40 40z m232 240l-64 0 0-32-208 0 0 32-64 0 0-32-88 0 0-400 512 0 0 400-88 0z m-48-16l32 0 0-48-32 0z m-272 0l32 0 0-48-32 0z m-88-400l0 304 480 0 0-304z m480 368l0-48-480 0 0 48 72 0 0-32 64 0 0 32 208 0 0-32 64 0 0 32z"/>
<glyph unicode="&#126;" d="M424 472l-64 0 0-32-208 0 0 32-64 0 0-32-88 0 0-400 512 0 0 400-88 0z m-48-16l32 0 0-48-32 0z m-272 0l32 0 0-48-32 0z m-88-400l0 304 480 0 0-304z m480 368l0-48-480 0 0 48 72 0 0-32 64 0 0 32 208 0 0-32 64 0 0 32z m-160-192l-50 0-23 59c-1 3-4 5-7 5-3 0-6-2-8-5l-20-59-52 0c-4 0-7-2-8-6-1-3 1-7 4-9l43-28-16-51c-1-3 1-6 3-8 3-2 7-3 9-1l45 29 43-29c1-1 3-1 4-1 2 0 4 1 5 2 3 1 4 5 3 8l-14 51 43 28c3 2 5 6 4 9-1 4-4 6-8 6z m-52-33c-3-2-5-6-4-9l10-35-30 20c-2 1-6 1-8 0l-31-20 11 35c1 3-1 7-4 9l-26 17 32 0c3 0 6 2 7 5l15 43 17-43c1-3 4-5 7-5l30 0z"/>
<glyph unicode="&#92;" d="M250 296l-64-65 12-12 50 50 0-141 16 0 0 141 50-51 12 13-64 65z m174 176l-64 0 0-32-208 0 0 32-64 0 0-32-88 0 0-400 512 0 0 400-88 0z m-48-16l32 0 0-48-32 0z m-272 0l32 0 0-48-32 0z m-88-400l0 304 480 0 0-304z m480 368l0-48-480 0 0 48 72 0 0-32 64 0 0 32 208 0 0-32 64 0 0 32z"/>
<glyph unicode="&#57344;" d="M240 195l-50 51-12-13 56-57 12 0 104 105-12 12z m208 53c-4 89-81 160-175 160-84 0-158-55-175-128l-7 0c-50 0-91-39-91-88 0-49 39-88 88-88l352 0c40 0 72 32 72 72 0 38-28 68-64 72z m-8-128l-352 0c-40 0-72 32-72 72 0 40 33 72 75 72l20 0 1 6c13 70 82 122 161 122 87 0 159-68 159-152l0-8 8 0c31 0 56-25 56-56 0-31-25-56-56-56z"/>
<glyph unicode="&#57345;" d="M448 248c-4 89-81 160-175 160-84 0-158-55-175-128l-7 0c-50 0-91-39-91-88 0-49 39-88 88-88l352 0c40 0 72 32 72 72 0 38-28 68-64 72z m-8-128l-352 0c-40 0-72 32-72 72 0 40 33 72 75 72l20 0 1 6c13 70 82 122 161 122 87 0 159-68 159-152l0-8 8 0c31 0 56-25 56-56 0-31-25-56-56-56z m-176 51l0 141-16 0 0-141-50 51-12-13 64-65 12 0 64 65-12 12z"/>
<glyph unicode="&#57346;" d="M448 248c-4 89-81 160-175 160-84 0-158-55-175-128l-7 0c-50 0-91-39-91-88 0-49 39-88 88-88l352 0c40 0 72 32 72 72 0 38-28 68-64 72z m-8-128l-352 0c-40 0-72 32-72 72 0 40 33 72 75 72l20 0 1 6c13 70 82 122 161 122 87 0 159-68 159-152l0-8 8 0c31 0 56-25 56-56 0-31-25-56-56-56z m-256 128l144 0 0-16-144 0z"/>
<glyph unicode="&#57347;" d="M448 248c-4 89-81 160-175 160-84 0-158-55-175-128l-7 0c-50 0-91-39-91-88 0-49 39-88 88-88l352 0c40 0 72 32 72 72 0 38-28 68-64 72z m-8-128l-352 0c-40 0-72 32-72 72 0 40 33 72 75 72l20 0 1 6c13 70 82 122 161 122 87 0 159-68 159-152l0-8 8 0c31 0 56-25 56-56 0-31-25-56-56-56z m-184 200c-21 0-41-8-57-23-15-16-23-36-23-57 0-21 8-41 23-57 16-15 36-23 57-23l0 0c44 0 80 36 80 80 0 21-8 41-23 57-16 15-36 23-57 23z m0-144c-17 0-33 7-45 19-12 12-19 28-19 45 0 14 5 28 13 39l90-89c-11-9-24-14-39-14z m50 25l-89 90c11 8 25 13 39 13 17 0 33-7 45-19 12-12 19-28 19-45 0-15-5-28-14-39z"/>
<glyph unicode="&#57348;" d="M448 248c-4 89-81 160-175 160-84 0-158-55-175-128l-7 0c-50 0-91-39-91-88 0-49 39-88 88-88l352 0c40 0 72 32 72 72 0 38-28 68-64 72z m-8-128l-352 0c-40 0-72 32-72 72 0 40 33 72 75 72l20 0 1 6c13 70 82 122 161 122 87 0 159-68 159-152l0-8 8 0c31 0 56-25 56-56 0-31-25-56-56-56z m-176 192l-16 0 0-64-64 0 0-16 64 0 0-64 16 0 0 64 64 0 0 16-64 0z"/>
<glyph unicode="&#57349;" d="M448 248c-4 89-81 160-175 160-84 0-158-55-175-128l-7 0c-50 0-91-39-91-88 0-49 39-88 88-88l352 0c40 0 72 32 72 72 0 38-28 68-64 72z m-8-128l-352 0c-40 0-72 32-72 72 0 40 33 72 75 72l20 0 1 6c13 70 82 122 161 122 87 0 159-68 159-152l0-8 8 0c31 0 56-25 56-56 0-31-25-56-56-56z m-182 91l14-19-16 0c-32 0-56 34-56 64l-16 0c0-38 31-80 72-80l16 0-14-19 13-10 25 32 0 10-25 32z m14 125l-16 0 14 19-13 10-25-32 0-10 25-32 13 10-14 19 16 0c32 0 56-34 56-64l16 0c0 38-31 80-72 80z"/>
<glyph unicode="&#57350;" d="M448 248c-4 89-81 160-175 160-84 0-158-55-175-128l-7 0c-50 0-91-39-91-88 0-49 39-88 88-88l352 0c40 0 72 32 72 72 0 38-28 68-64 72z m-8-128l-352 0c-40 0-72 32-72 72 0 40 33 72 75 72l20 0 1 6c13 70 82 122 161 122 87 0 159-68 159-152l0-8 8 0c31 0 56-25 56-56 0-31-25-56-56-56z m-134 182l-50-51-50 51-12-12 51-50-51-50 12-12 50 51 50-51 12 12-51 50 51 50z"/>
<glyph unicode="&#57351;" d="M448 248c-4 89-81 160-175 160-84 0-158-55-175-128l-7 0c-50 0-91-39-91-88 0-49 39-88 88-88l352 0c40 0 72 32 72 72 0 38-28 68-64 72z m-8-128l-352 0c-40 0-72 32-72 72 0 40 33 72 75 72l20 0 1 6c13 70 82 122 161 122 87 0 159-68 159-152l0-8 8 0c31 0 56-25 56-56 0-31-25-56-56-56z m-152 144c0 31-25 56-56 56-31 0-56-25-56-56 0-31 25-56 56-56 13 0 24 4 33 11l57-57 12 12-57 57c7 9 11 20 11 33z m-96 0c0 22 18 40 40 40 22 0 40-18 40-40 0-22-18-40-40-40-22 0-40 18-40 40z"/>
<glyph unicode="&#57352;" d="M448 248c-4 89-81 160-175 160-84 0-158-55-175-128l-7 0c-50 0-91-39-91-88 0-49 39-88 88-88l352 0c40 0 72 32 72 72 0 38-28 68-64 72z m-8-128l-352 0c-40 0-72 32-72 72 0 40 33 72 75 72l20 0 1 6c13 70 82 122 161 122 87 0 159-68 159-152l0-8 8 0c31 0 56-25 56-56 0-31-25-56-56-56z m-190 192l-64-65 12-12 50 50 0-141 16 0 0 141 50-51 12 13-64 65z"/>
<glyph unicode="&#57353;" d="M448 512l-267 0-117-117 0-395 384 0z m-272-27l0-85-85 0z m256-469l-352 0 0 368 112 0 0 112 240 0z m-242 214l-12-13 56-57 12 0 104 105-12 12-98-98z"/>
<glyph unicode="&#57354;" d="M64 0l384 0 0 512-267 0-117-117z m368 16l-352 0 0 368 112 0 0 112 240 0z m-341 384l85 85 0-85z m77-200c0-20 12-32 32-32l112 0c20 0 32 12 32 32 0 10-8 27-24 31-4 28-30 49-64 49-30 0-55-24-62-49-17-3-26-21-26-31z m39 16l1 6c4 20 25 42 48 42 23 0 48-14 48-40l0-8 8 0c11 0 16-12 16-16 0-11-5-16-16-16l-112 0c-12 0-16 4-16 16 0 4 5 16 16 16z"/>
<glyph unicode="&#57355;" d="M448 512l-267 0-117-117 0-395 384 0z m-272-27l0-85-85 0z m256-469l-352 0 0 368 112 0 0 112 240 0z m-234 206l-12-13 64-65 12 0 64 65-12 12-50-50 0 141-16 0 0-141z"/>
<glyph unicode="&#57356;" d="M64 0l384 0 0 512-267 0-117-117z m368 16l-352 0 0 368 112 0 0 112 240 0z m-341 384l85 85 0-85z m133-240l0 88 126 0-25 40 25 40-126 0 0 16-16 0 0-184z m98 152l-16-24 16-24-98 0 0 48z"/>
<glyph unicode="&#57357;" d="M64 0l384 0 0 512-267 0-117-117z m368 16l-352 0 0 368 112 0 0 112 240 0z m-341 384l85 85 0-85z m133-176l-48 0 0-64-16 0 0-16 192 0 0 16-16 0 0 88-48 0 0-88-8 0 0 144-48 0 0-144-8 0z m80 8l16 0 0-72-16 0z m-56 56l16 0 0-128-16 0z m-56-128l0 48 16 0 0-48z"/>
<glyph unicode="&#57358;" d="M64 0l384 0 0 512-267 0-117-117z m368 16l-352 0 0 368 112 0 0 112 240 0z m-341 384l85 85 0-85z m77-152c0-57 81-101 84-103l4-2 4 2c3 2 84 46 84 103 0 27-21 48-48 48-17 0-31-9-40-21-9 12-23 21-40 21-27 0-48-21-48-48z m80 0l16 0c0 18 14 32 32 32 19 0 32-13 32-32 0-42-57-78-72-87-15 9-72 45-72 87 0 19 13 32 32 32 18 0 32-14 32-32z"/>
<glyph unicode="&#57359;" d="M448 512l-267 0-117-117 0-395 384 0z m-272-27l0-85-85 0z m256-469l-352 0 0 368 112 0 0 112 240 0z m-248 216l144 0 0-16-144 0z"/>
<glyph unicode="&#57360;" d="M448 512l-267 0-117-117 0-395 384 0z m-272-27l0-85-85 0z m256-469l-352 0 0 368 112 0 0 112 240 0z m-115 216l-141 0 0-16 141 0-51-50 13-12 65 64 0 12-65 64-12-12z"/>
<glyph unicode="&#57361;" d="M64 0l384 0 0 512-267 0-117-117z m368 16l-352 0 0 368 112 0 0 112 240 0z m-341 384l85 85 0-85z m85-176c0-21 8-41 23-57 16-15 36-23 57-23l0 0c44 0 80 36 80 80 0 21-8 41-23 57-16 15-36 23-57 23-21 0-41-8-57-23-15-16-23-36-23-57z m80-64c-17 0-33 7-45 19-12 12-19 28-19 45 0 14 5 28 13 39l90-89c-11-9-24-14-39-14z m0 128c17 0 33-7 45-19 12-12 19-28 19-45 0-15-5-28-14-39l-89 90c11 8 25 13 39 13z"/>
<glyph unicode="&#57362;" d="M64 0l384 0 0 512-267 0-117-117z m368 16l-352 0 0 368 112 0 0 112 240 0z m-341 384l85 85 0-85z m109-200c-18 0-32-14-32-32 0-18 14-32 32-32 18 0 32 14 32 32l0 81 64 13 0-50c-5 2-10 4-16 4-18 0-32-14-32-32 0-18 14-32 32-32 18 0 32 14 32 32l0 130-96-19 0-99c-5 2-10 4-16 4z m0-48c-9 0-16 7-16 16 0 9 7 16 16 16 9 0 16-7 16-16 0-9-7-16-16-16z m80 16c-9 0-16 7-16 16 0 9 7 16 16 16 9 0 16-7 16-16 0-9-7-16-16-16z m16 126l0-15-64-13 0 15z"/>
<glyph unicode="&#57363;" d="M64 0l384 0 0 512-267 0-117-117z m368 16l-352 0 0 368 112 0 0 112 240 0z m-341 384l85 85 0-85z m86-212l-11-54 54 11 127 127-43 43z m35-29l-26-5 5 26 89 89 21-21z m100 100l-21 21 13 13 21-21z"/>
<glyph unicode="&#57364;" d="M64 0l384 0 0 512-267 0-117-117z m368 16l-352 0 0 368 112 0 0 112 240 0z m-341 384l85 85 0-85z m77-112l0-128 176 0 0 128z m160-32c0-9-7-16-16-16-9 0-16 7-16 16 0 9 7 16 16 16 9 0 16-7 16-16z m-44 16c-2-5-4-10-4-16 0-18 14-32 32-32 6 0 11 2 16 4l0-42-48 41-15-15-32 40-49-49 0 69z m-100-91l47 47 32-40 17 17 36-29-132 0z"/>
<glyph unicode="&#57365;" d="M448 512l-267 0-117-117 0-395 384 0z m-272-27l0-85-85 0z m256-469l-352 0 0 368 112 0 0 112 240 0z m-184 280l0-64-64 0 0-16 64 0 0-64 16 0 0 64 64 0 0 16-64 0 0 64z"/>
<glyph unicode="&#57366;" d="M448 512l-267 0-117-117 0-395 384 0z m-272-27l0-85-85 0z m256-469l-352 0 0 368 112 0 0 112 240 0z m-199 278l-65-64 0-12 65-64 12 12-50 50 141 0 0 16-141 0 50 50z"/>
<glyph unicode="&#57367;" d="M64 0l384 0 0 512-267 0-117-117z m368 16l-352 0 0 368 112 0 0 112 240 0z m-341 384l85 85 0-85z m93-176c0-38 31-80 72-80l16 0-14-19 13-10 25 32 0 10-25 32-13-10 14-19-16 0c-32 0-56 34-56 64z m86 45l-14 19 16 0c32 0 56-34 56-64l16 0c0 38-31 80-72 80l-16 0 14 19-13 10-25-32 0-10 25-32z"/>
<glyph unicode="&#57368;" d="M448 512l-267 0-117-117 0-395 384 0z m-272-27l0-85-85 0z m256-469l-352 0 0 368 112 0 0 112 240 0z m-238 150l12-12 50 51 50-51 12 12-51 50 51 50-12 12-50-51-50 51-12-12 51-50z"/>
<glyph unicode="&#57369;" d="M64 395l0-395 384 0 0 512-267 0z m112 90l0-85-85 0z m256-469l-352 0 0 368 112 0 0 112 240 0z m-256 216c0-31 25-56 56-56 13 0 24 4 33 11l57-57 12 12-57 57c7 9 11 20 11 33 0 31-25 56-56 56-31 0-56-25-56-56z m56 40c22 0 40-18 40-40 0-22-18-40-40-40-22 0-40 18-40 40 0 22 18 40 40 40z"/>
<glyph unicode="&#57370;" d="M448 512l-267 0-117-117 0-395 384 0z m-272-27l0-85-85 0z m256-469l-352 0 0 368 112 0 0 112 240 0z m-256 248c-4 0-7-2-8-6-1-3 1-7 4-9l43-28-16-51c-1-3 1-6 3-8 3-2 7-3 9-1l45 29 43-29c1-1 3-1 4-1 2 0 4 1 5 2 3 1 4 5 3 8l-14 51 43 28c3 2 5 6 4 9-1 4-4 6-8 6l-50 0-23 59c-1 3-4 5-7 5-3 0-6-2-8-5l-20-59z m65-11l15 43 17-43c1-3 4-5 7-5l30 0-26-17c-3-2-5-6-4-9l10-35-30 20c-2 1-6 1-8 0l-31-20 11 35c1 3-1 7-4 9l-26 17 32 0c3 0 6 2 7 5z"/>
<glyph unicode="&#57371;" d="M448 512l-267 0-117-117 0-395 384 0z m-272-27l0-85-85 0z m256-469l-352 0 0 368 112 0 0 112 240 0z m-246 231l12-12 50 50 0-141 16 0 0 141 50-51 12 13-64 65-12 0z"/>
<glyph unicode="&#57372;" d="M179 440l-179 0 0-368 512 0 0 304-269 0z m317-352l-480 0 0 336 157 0 64-64 259 0z m-318 129l56-57 12 0 104 105-12 12-98-98-50 50z"/>
<glyph unicode="&#57373;" d="M179 440l-179 0 0-368 512 0 0 304-269 0z m317-352l-480 0 0 336 157 0 64-64 259 0z m-302 143c-17-3-26-21-26-31 0-20 12-32 32-32l112 0c20 0 32 12 32 32 0 10-8 27-24 31-4 28-30 49-64 49-30 0-55-24-62-49z m62 33c23 0 48-14 48-40l0-8 8 0c11 0 16-12 16-16 0-11-5-16-16-16l-112 0c-12 0-16 4-16 16 0 4 5 16 16 16l7 0 1 6c4 20 25 42 48 42z"/>
<glyph unicode="&#57374;" d="M179 440l-179 0 0-368 512 0 0 304-269 0z m317-352l-480 0 0 336 157 0 64-64 259 0z m-304 48l128 0 0 176-67 0-61-61z m112 16l-96 0 0 88 56 0 0 56 40 0z m-85 104l29 29 0-29z"/>
<glyph unicode="&#57375;" d="M179 440l-179 0 0-368 512 0 0 304-269 0z m317-352l-480 0 0 336 157 0 64-64 259 0z m-298 134l-12-13 64-65 12 0 64 65-12 12-50-50 0 141-16 0 0-141z"/>
<glyph unicode="&#57376;" d="M179 440l-179 0 0-368 512 0 0 304-269 0z m317-352l-480 0 0 336 157 0 64-64 259 0z m-272 224l0 16-16 0 0-184 16 0 0 88 126 0-25 40 25 40z m98-64l-98 0 0 48 98 0-16-24z"/>
<glyph unicode="&#57377;" d="M179 440l-179 0 0-368 512 0 0 304-269 0z m317-352l-480 0 0 336 157 0 64-64 259 0z m-264 216l0-144-8 0 0 64-48 0 0-64-16 0 0-16 192 0 0 16-16 0 0 88-48 0 0-88-8 0 0 144z m-40-144l0 48 16 0 0-48z m112 72l16 0 0-72-16 0z m-56-72l0 128 16 0 0-128z"/>
<glyph unicode="&#57378;" d="M179 440l-179 0 0-368 512 0 0 304-269 0z m317-352l-480 0 0 336 157 0 64-64 259 0z m-328 160c0-57 81-101 84-103l4-2 4 2c3 2 84 46 84 103 0 27-21 48-48 48-17 0-31-9-40-21-9 12-23 21-40 21-27 0-48-21-48-48z m80 0l16 0c0 18 14 32 32 32 19 0 32-13 32-32 0-42-57-78-72-87-15 9-72 45-72 87 0 19 13 32 32 32 18 0 32-14 32-32z"/>
<glyph unicode="&#57379;" d="M179 440l-179 0 0-368 512 0 0 304-269 0z m317-352l-480 0 0 336 157 0 64-64 259 0z m-312 144l144 0 0-16-144 0z"/>
<glyph unicode="&#57380;" d="M179 440l-179 0 0-368 512 0 0 304-269 0z m317-352l-480 0 0 336 157 0 64-64 259 0z m-320 144l0-16 141 0-51-50 13-12 65 64 0 12-65 64-12-12 50-50z"/>
<glyph unicode="&#57381;" d="M179 440l-179 0 0-368 512 0 0 304-269 0z m317-352l-480 0 0 336 157 0 64-64 259 0z m-320 136c0-21 8-41 23-57 16-15 36-23 57-23l0 0c44 0 80 36 80 80 0 21-8 41-23 57-16 15-36 23-57 23-21 0-41-8-57-23-15-16-23-36-23-57z m80-64c-17 0-33 7-45 19-12 12-19 28-19 45 0 14 5 28 13 39l90-89c-11-9-24-14-39-14z m0 128c17 0 33-7 45-19 12-12 19-28 19-45 0-15-5-28-14-39l-89 90c11 8 25 13 39 13z"/>
<glyph unicode="&#57382;" d="M179 440l-179 0 0-368 512 0 0 304-269 0z m317-352l-480 0 0 336 157 0 64-64 259 0z m-280 108c-5 2-10 4-16 4-18 0-32-14-32-32 0-18 14-32 32-32 18 0 32 14 32 32l0 81 64 13 0-50c-5 2-10 4-16 4-18 0-32-14-32-32 0-18 14-32 32-32 18 0 32 14 32 32l0 130-96-19z m-16-44c-9 0-16 7-16 16 0 9 7 16 16 16 9 0 16-7 16-16 0-9-7-16-16-16z m80 16c-9 0-16 7-16 16 0 9 7 16 16 16 9 0 16-7 16-16 0-9-7-16-16-16z m16 126l0-15-64-13 0 15z"/>
<glyph unicode="&#57383;" d="M179 440l-179 0 0-368 512 0 0 304-269 0z m317-352l-480 0 0 336 157 0 64-64 259 0z m-330 46l54 11 127 127-43 43-127-127z m159 138l-13-13-21 21 13 13z m-134-92l89 89 21-21-89-89-26-5z"/>
<glyph unicode="&#57384;" d="M179 440l-179 0 0-368 512 0 0 304-269 0z m317-352l-480 0 0 336 157 0 64-64 259 0z m-328 72l176 0 0 128-176 0z m16 21l47 47 32-40 17 17 36-29-132 0z m128 91c9 0 16-7 16-16 0-9-7-16-16-16-9 0-16 7-16 16 0 9 7 16 16 16z m-28 0c-2-5-4-10-4-16 0-18 14-32 32-32 6 0 11 2 16 4l0-42-48 41-15-15-32 40-49-49 0 69z"/>
<glyph unicode="&#57385;" d="M184 232l0-16 64 0 0-64 16 0 0 64 64 0 0 16-64 0 0 64-16 0 0-64z m-5 208l-179 0 0-368 512 0 0 304-269 0z m317-352l-480 0 0 336 157 0 64-64 259 0z"/>
<glyph unicode="&#57386;" d="M179 440l-179 0 0-368 512 0 0 304-269 0z m317-352l-480 0 0 336 157 0 64-64 259 0z m-263 206l-65-64 0-12 65-64 12 12-50 50 141 0 0 16-141 0 50 50z"/>
<glyph unicode="&#57387;" d="M179 440l-179 0 0-368 512 0 0 304-269 0z m317-352l-480 0 0 336 157 0 64-64 259 0z m-238 91l14-19-16 0c-32 0-56 34-56 64l-16 0c0-38 31-80 72-80l16 0-14-19 13-10 25 32 0 10-25 32z m-26 112l25-32 13 10-14 19 16 0c32 0 56-34 56-64l16 0c0 38-31 80-72 80l-16 0 14 19-13 10-25-32z"/>
<glyph unicode="&#57388;" d="M179 440l-179 0 0-368 512 0 0 304-269 0z m317-352l-480 0 0 336 157 0 64-64 259 0z m-290 190l-12-12 51-50-51-50 12-12 50 51 50-51 12 12-51 50 51 50-12 12-50-51z"/>
<glyph unicode="&#57389;" d="M179 440l-179 0 0-368 512 0 0 304-269 0z m317-352l-480 0 0 336 157 0 64-64 259 0z m-320 144c0-31 25-56 56-56 13 0 24 4 33 11l57-57 12 12-57 57c7 9 11 20 11 33 0 31-25 56-56 56-31 0-56-25-56-56z m96 0c0-22-18-40-40-40-22 0-40 18-40 40 0 22 18 40 40 40 22 0 40-18 40-40z"/>
<glyph unicode="&#57390;" d="M179 440l-179 0 0-368 512 0 0 304-269 0z m317-352l-480 0 0 336 157 0 64-64 259 0z m-320 160c-4 0-7-2-8-6-1-3 1-7 4-9l43-28-16-51c-1-3 1-6 3-8 3-2 7-3 9-1l45 29 43-29c1-1 3-1 5-1 1 0 3 0 4 2 3 1 4 5 3 8l-14 51 43 28c3 2 5 6 4 9-1 4-4 6-8 6l-50 0-23 59c-1 3-4 5-7 5 0 0 0 0 0 0-3 0-6-2-8-5l-20-59z m65-11l15 43 17-43c1-3 4-5 7-5l30 0-26-17c-3-2-5-6-4-9l10-35-30 20c-2 1-6 1-8 0l-31-20 11 35c1 3-1 7-4 9l-26 17 32 0c3 0 6 2 7 5z"/>
<glyph unicode="&#57391;" d="M179 440l-179 0 0-368 512 0 0 304-269 0z m317-352l-480 0 0 336 157 0 64-64 259 0z m-298 146l50 51 0-141 16 0 0 141 50-51 12 13-64 65-12 0-64-65z"/>
<glyph unicode="&#57392;" d="M246 288l104 105-12 12-98-98-50 51-12-13 56-57z m186 224l-352 0 0-169-80-34 0-309 512 0 0 309-80 34z m-16-16l0-238-160-100-160 100 0 238z m-336-228l-55 35 55 23z m-64-252l0 274 240-151 240 151 0-274z m471 287l-55-35 0 58z"/>
<glyph unicode="&#57393;" d="M200 280l112 0c20 0 32 12 32 32 0 10-8 27-24 31-4 28-30 49-64 49-30 0-55-24-62-49-17-3-26-21-26-31 0-20 12-32 32-32z m0 48l7 0 1 6c4 20 25 42 48 42 23 0 48-14 48-40l0-8 8 0c11 0 16-12 16-16 0-11-5-16-16-16l-112 0c-12 0-16 4-16 16 0 4 5 16 16 16z m232 184l-352 0 0-169-80-34 0-309 512 0 0 309-80 34z m-16-16l0-238-160-100-160 100 0 238z m-336-228l-55 35 55 23z m-64-252l0 274 240-151 240 151 0-274z m471 287l-55-35 0 58z"/>
<glyph unicode="&#57394;" d="M320 440l-67 0-61-61 0-115 128 0z m-72-27l0-29-29 0z m56-133l-96 0 0 88 56 0 0 56 40 0z m128 232l-352 0 0-169-80-34 0-309 512 0 0 309-80 34z m-16-16l0-238-160-100-160 100 0 238z m-336-228l-55 35 55 23z m-64-252l0 274 240-151 240 151 0-274z m471 287l-55-35 0 58z"/>
<glyph unicode="&#57395;" d="M262 256l64 65-12 12-50-50 0 141-16 0 0-141-50 51-12-13 64-65z m170 256l-352 0 0-169-80-34 0-309 512 0 0 309-80 34z m-16-16l0-238-160-100-160 100 0 238z m-336-228l-55 35 55 23z m-64-252l0 274 240-151 240 151 0-274z m471 287l-55-35 0 58z"/>
<glyph unicode="&#57396;" d="M432 512l-352 0 0-169-80-34 0-309 512 0 0 309-80 34z m-16-16l0-238-160-100-160 100 0 238z m-336-228l-55 35 55 23z m-64-252l0 274 240-151 240 151 0-274z m471 287l-55-35 0 58z m-263 41l126 0-25 40 25 40-126 0 0 16-16 0 0-184 16 0z m98 64l-16-24 16-24-98 0 0 48z"/>
<glyph unicode="&#57397;" d="M432 512l-352 0 0-169-80-34 0-309 512 0 0 309-80 34z m-16-16l0-238-160-100-160 100 0 238z m-336-228l-55 35 55 23z m-64-252l0 274 240-151 240 151 0-274z m471 287l-55-35 0 58z m-235-46l4-2 4 2c3 2 84 46 84 103 0 27-21 48-48 48-17 0-31-9-40-21-9 12-23 21-40 21-27 0-48-21-48-48 0-57 81-101 84-103z m-36 135c18 0 32-14 32-32l16 0c0 18 14 32 32 32 19 0 32-13 32-32 0-42-57-78-72-87-15 9-72 45-72 87 0 19 13 32 32 32z"/>
<glyph unicode="&#57398;" d="M266 278l13-12 65 64 0 12-65 64-12-12 50-50-141 0 0-16 141 0z m166 234l-352 0 0-169-80-34 0-309 512 0 0 309-80 34z m-16-16l0-238-160-100-160 100 0 238z m-336-228l-55 35 55 23z m-64-252l0 274 240-151 240 151 0-274z m471 287l-55-35 0 58z"/>
<glyph unicode="&#57399;" d="M256 256l0 0c44 0 80 36 80 80 0 21-8 41-23 57-16 15-36 23-57 23-21 0-41-8-57-23-15-16-23-36-23-57 0-21 8-41 23-57 16-15 36-23 57-23z m0 144c17 0 33-7 45-19 12-12 19-28 19-45 0-15-5-28-14-39l-89 90c11 8 25 13 39 13z m-51-25l90-89c-11-9-24-14-39-14-17 0-33 7-45 19-12 12-19 28-19 45 0 14 5 28 13 39z m227 137l-352 0 0-169-80-34 0-309 512 0 0 309-80 34z m-16-16l0-238-160-100-160 100 0 238z m-336-228l-55 35 55 23z m-64-252l0 274 240-151 240 151 0-274z m471 287l-55-35 0 58z"/>
<glyph unicode="&#57400;" d="M200 248c18 0 32 14 32 32l0 81 64 13 0-50c-5 2-10 4-16 4-18 0-32-14-32-32 0-18 14-32 32-32 18 0 32 14 32 32l0 130-96-19 0-99c-5 2-10 4-16 4-18 0-32-14-32-32 0-18 14-32 32-32z m80 32c-9 0-16 7-16 16 0 9 7 16 16 16 9 0 16-7 16-16 0-9-7-16-16-16z m16 126l0-15-64-13 0 15z m-96-110c9 0 16-7 16-16 0-9-7-16-16-16-9 0-16 7-16 16 0 9 7 16 16 16z m232 216l-352 0 0-169-80-34 0-309 512 0 0 309-80 34z m-16-16l0-238-160-100-160 100 0 238z m-336-228l-55 35 55 23z m-64-252l0 274 240-151 240 151 0-274z m471 287l-55-35 0 58z"/>
<glyph unicode="&#57401;" d="M347 384l-43 43-127-127-11-54 54 11z m-22 0l-13-13-21 21 13 13z m-139-118l5 26 89 89 21-21-89-89z m246 246l-352 0 0-169-80-34 0-309 512 0 0 309-80 34z m-16-16l0-238-160-100-160 100 0 238z m-336-228l-55 35 55 23z m-64-252l0 274 240-151 240 151 0-274z m471 287l-55-35 0 58z"/>
<glyph unicode="&#57402;" d="M344 400l-176 0 0-128 176 0z m-32-16c9 0 16-7 16-16 0-9-7-16-16-16-9 0-16 7-16 16 0 9 7 16 16 16z m-28 0c-2-5-4-10-4-16 0-18 14-32 32-32 6 0 11 2 16 4l0-42-48 41-15-15-32 40-49-49 0 69z m-100-91l47 47 32-40 17 17 36-29-132 0z m248 50l0 169-352 0 0-169-80-34 0-309 512 0 0 309z m55-40l-55-35 0 58z m-71 193l0-238-160-100-160 100 0 238z m-336-228l-55 35 55 23z m-64-252l0 274 240-151 240 151 0-274z"/>
<glyph unicode="&#57403;" d="M246 278l-51 50 141 0 0 16-141 0 51 50-13 12-65-64 0-12 65-64z m186 234l-352 0 0-169-80-34 0-309 512 0 0 309-80 34z m-16-16l0-238-160-100-160 100 0 238z m-336-228l-55 35 55 23z m-64-252l0 274 240-151 240 151 0-274z m471 287l-55-35 0 58z"/>
<glyph unicode="&#57404;" d="M256 256l16 0-14-19 13-10 25 32 0 10-25 32-13-10 14-19-16 0c-32 0-56 34-56 64l-16 0c0-38 31-80 72-80z m14 125l-14 19 16 0c32 0 56-34 56-64l16 0c0 38-31 80-72 80l-16 0 14 19-13 10-25-32 0-10 25-32z m162 131l-352 0 0-169-80-34 0-309 512 0 0 309-80 34z m-16-16l0-238-160-100-160 100 0 238z m-336-228l-55 35 55 23z m-64-252l0 274 240-151 240 151 0-274z m471 287l-55-35 0 58z"/>
<glyph unicode="&#57405;" d="M206 274l50 51 50-51 12 12-51 50 51 50-12 12-50-51-50 51-12-12 51-50-51-50z m226 238l-352 0 0-169-80-34 0-309 512 0 0 309-80 34z m-16-16l0-238-160-100-160 100 0 238z m-336-228l-55 35 55 23z m-64-252l0 274 240-151 240 151 0-274z m471 287l-55-35 0 58z"/>
<glyph unicode="&#57406;" d="M232 304c13 0 24 4 33 11l57-57 12 12-57 57c7 9 11 20 11 33 0 31-25 56-56 56-31 0-56-25-56-56 0-31 25-56 56-56z m0 96c22 0 40-18 40-40 0-22-18-40-40-40-22 0-40 18-40 40 0 22 18 40 40 40z m200 112l-352 0 0-169-80-34 0-309 512 0 0 309-80 34z m-16-16l0-238-160-100-160 100 0 238z m-336-228l-55 35 55 23z m-64-252l0 274 240-151 240 151 0-274z m471 287l-55-35 0 58z"/>
<glyph unicode="&#57407;" d="M432 512l-352 0 0-169-80-34 0-309 512 0 0 309-80 34z m-16-16l0-238-160-100-160 100 0 238z m-336-228l-55 35 55 23z m-64-252l0 274 240-151 240 151 0-274z m471 287l-55-35 0 58z m-315 42l43-28-16-51c-1-3 1-6 3-8 3-2 7-3 9-1l45 29 43-29c1-1 3-1 4-1 2 0 4 1 5 2 3 1 4 5 3 8l-14 51 43 28c3 2 5 6 4 9-1 4-4 6-8 6l-50 0-23 59c-1 3-4 5-7 5-3 0-6-2-8-5l-20-59-52 0c-4 0-7-2-8-6-1-3 1-7 4-9z m62-1c3 0 6 2 7 5l15 43 17-43c1-3 4-5 7-5l30 0-26-17c-3-2-5-6-4-9l10-35-30 20c-2 1-6 1-8 0l-31-20 11 35c1 3-1 7-4 9l-26 17z"/>
<glyph unicode="&#57408;" d="M248 397l0-141 16 0 0 141 50-51 12 13-64 65-12 0-64-65 12-12z m184 115l-352 0 0-169-80-34 0-309 512 0 0 309-80 34z m-16-16l0-238-160-100-160 100 0 238z m-336-228l-55 35 55 23z m-64-252l0 274 240-151 240 151 0-274z m471 287l-55-35 0 58z"/>
<glyph unicode="&#57409;" d="M0 128l136 0 0-105 123 105 253 0 0 352-512 0z m16 336l480 0 0-320-243 0-101-87 0 87-136 0z m230-224l104 105-12 12-98-98-50 51-12-13 56-57z"/>
<glyph unicode="&#57410;" d="M0 128l136 0 0-105 123 105 253 0 0 352-512 0z m16 336l480 0 0-320-243 0-101-87 0 87-136 0z m216-152l48 0 0-16-48 0z m80 0l48 0 0-16-48 0z m-160 0l48 0 0-16-48 0z"/>
<glyph unicode="&#57411;" d="M256 200c40 0 72 32 72 72l-16 0c0-31-25-56-56-56-31 0-56 25-56 56l-16 0c0-40 32-72 72-72z m-112 160l16 0 0-16-16 0z m208 0l16 0 0-16-16 0z m-352-232l136 0 0-105 123 105 253 0 0 352-512 0z m16 336l480 0 0-320-243 0-101-87 0 87-136 0z"/>
<glyph unicode="&#57412;" d="M0 128l136 0 0-105 123 105 253 0 0 352-512 0z m16 336l480 0 0-320-243 0-101-87 0 87-136 0z m236-239l4-2 4 2c3 2 84 46 84 103 0 27-21 48-48 48-17 0-31-9-40-21-9 12-23 21-40 21-27 0-48-21-48-48 0-57 81-101 84-103z m-36 135c18 0 32-14 32-32l16 0c0 18 14 32 32 32 19 0 32-13 32-32 0-42-57-78-72-87-15 9-72 45-72 87 0 19 13 32 32 32z"/>
<glyph unicode="&#57413;" d="M184 312l144 0 0-16-144 0z m-184-184l136 0 0-105 123 105 253 0 0 352-512 0z m16 336l480 0 0-320-243 0-101-87 0 87-136 0z"/>
<glyph unicode="&#57414;" d="M0 480l0-352 136 0 0-105 123 105 253 0 0 352z m496-336l-243 0-101-87 0 87-136 0 0 320 480 0z m-296 72c18 0 32 14 32 32l0 81 64 13 0-50c-5 2-10 4-16 4-18 0-32-14-32-32 0-18 14-32 32-32 18 0 32 14 32 32l0 130-96-19 0-99c-5 2-10 4-16 4-18 0-32-14-32-32 0-18 14-32 32-32z m80 32c-9 0-16 7-16 16 0 9 7 16 16 16 9 0 16-7 16-16 0-9-7-16-16-16z m16 126l0-15-64-13 0 15z m-96-110c9 0 16-7 16-16 0-9-7-16-16-16-9 0-16 7-16 16 0 9 7 16 16 16z"/>
<glyph unicode="&#57415;" d="M248 232l16 0 0 64 64 0 0 16-64 0 0 64-16 0 0-64-64 0 0-16 64 0z m-248-104l136 0 0-105 123 105 253 0 0 352-512 0z m16 336l480 0 0-320-243 0-101-87 0 87-136 0z"/>
<glyph unicode="&#57416;" d="M0 128l136 0 0-105 123 105 253 0 0 352-512 0z m16 336l480 0 0-320-243 0-101-87 0 87-136 0z m240-240l16 0-14-19 13-10 25 32 0 10-25 32-13-10 14-19-16 0c-32 0-56 34-56 64l-16 0c0-38 31-80 72-80z m14 125l-14 19 16 0c32 0 56-34 56-64l16 0c0 38-31 80-72 80l-16 0 14 19-13 10-25-32 0-10 25-32z"/>
<glyph unicode="&#57417;" d="M0 128l136 0 0-105 123 105 253 0 0 352-512 0z m16 336l480 0 0-320-243 0-101-87 0 87-136 0z m190-222l50 51 50-51 12 12-51 50 51 50-12 12-50-51-50 51-12-12 51-50-51-50z"/>
<glyph unicode="&#57418;" d="M144 360l16 0 0-16-16 0z m208 0l16 0 0-16-16 0z m-352-232l136 0 0-105 123 105 253 0 0 352-512 0z m16 336l480 0 0-320-243 0-101-87 0 87-136 0z m240-200c31 0 56-25 56-56l16 0c0 40-32 72-72 72-40 0-72-32-72-72l16 0c0 31 25 56 56 56z"/>
<glyph unicode="&#57419;" d="M392 512l-272 0 0-512 272 0z m-16-16l0-48-240 0 0 48z m0-64l0-320-240 0 0 320z m-240-416l0 80 240 0 0-80z m88 464l64 0 0-16-64 0z m32-400c-13 0-24-11-24-24 0-13 11-24 24-24 13 0 24 11 24 24 0 13-11 24-24 24z m0-32c-4 0-8 4-8 8 0 4 4 8 8 8 4 0 8-4 8-8 0-4-4-8-8-8z m-56 168l112 0c20 0 32 12 32 32 0 10-8 27-24 31-4 28-30 49-64 49-30 0-55-24-62-49-17-3-26-21-26-31 0-20 12-32 32-32z m0 48l7 0 1 6c4 20 25 42 48 42 23 0 48-14 48-40l0-8 8 0c11 0 16-12 16-16 0-11-5-16-16-16l-112 0c-12 0-16 4-16 16 0 4 5 16 16 16z"/>
<glyph unicode="&#57420;" d="M392 512l-272 0 0-512 272 0z m-16-16l0-48-240 0 0 48z m0-64l0-320-240 0 0 320z m-240-416l0 80 240 0 0-80z m88 464l64 0 0-16-64 0z m32-400c-13 0-24-11-24-24 0-13 11-24 24-24 13 0 24 11 24 24 0 13-11 24-24 24z m0-32c-4 0-8 4-8 8 0 4 4 8 8 8 4 0 8-4 8-8 0-4-4-8-8-8z m-4 145l4-2 4 2c3 2 84 46 84 103 0 27-21 48-48 48-17 0-31-9-40-21-9 12-23 21-40 21-27 0-48-21-48-48 0-57 81-101 84-103z m-36 135c18 0 32-14 32-32l16 0c0 18 14 32 32 32 19 0 32-13 32-32 0-42-57-78-72-87-15 9-72 45-72 87 0 19 13 32 32 32z"/>
<glyph unicode="&#57421;" d="M392 512l-272 0 0-512 272 0z m-16-16l0-48-240 0 0 48z m0-64l0-320-240 0 0 320z m-240-416l0 80 240 0 0-80z m88 464l64 0 0-16-64 0z m32-400c-13 0-24-11-24-24 0-13 11-24 24-24 13 0 24 11 24 24 0 13-11 24-24 24z m0-32c-4 0-8 4-8 8 0 4 4 8 8 8 4 0 8-4 8-8 0-4-4-8-8-8z m-57 167c16-15 36-23 57-23l0 0c44 0 80 36 80 80 0 21-8 41-23 57-16 15-36 23-57 23-21 0-41-8-57-23-15-16-23-36-23-57 0-21 8-41 23-57z m57 121c17 0 33-7 45-19 12-12 19-28 19-45 0-15-5-28-14-39l-89 90c11 8 25 13 39 13z m-51-25l90-89c-11-9-24-14-39-14-17 0-33 7-45 19-12 12-19 28-19 45 0 14 5 28 13 39z"/>
<glyph unicode="&#57422;" d="M392 512l-272 0 0-512 272 0z m-16-16l0-48-240 0 0 48z m0-64l0-320-240 0 0 320z m-240-416l0 80 240 0 0-80z m88 464l64 0 0-16-64 0z m32-400c-13 0-24-11-24-24 0-13 11-24 24-24 13 0 24 11 24 24 0 13-11 24-24 24z m0-32c-4 0-8 4-8 8 0 4 4 8 8 8 4 0 8-4 8-8 0-4-4-8-8-8z m-56 136c18 0 32 14 32 32l0 81 64 13 0-50c-5 2-10 4-16 4-18 0-32-14-32-32 0-18 14-32 32-32 18 0 32 14 32 32l0 130-96-19 0-99c-5 2-10 4-16 4-18 0-32-14-32-32 0-18 14-32 32-32z m80 32c-9 0-16 7-16 16 0 9 7 16 16 16 9 0 16-7 16-16 0-9-7-16-16-16z m16 126l0-15-64-13 0 15z m-96-110c9 0 16-7 16-16 0-9-7-16-16-16-9 0-16 7-16 16 0 9 7 16 16 16z"/>
<glyph unicode="&#57423;" d="M392 512l-272 0 0-512 272 0z m-16-16l0-48-240 0 0 48z m0-64l0-320-240 0 0 320z m-240-416l0 80 240 0 0-80z m88 464l64 0 0-16-64 0z m32-400c-13 0-24-11-24-24 0-13 11-24 24-24 13 0 24 11 24 24 0 13-11 24-24 24z m0-32c-4 0-8 4-8 8 0 4 4 8 8 8 4 0 8-4 8-8 0-4-4-8-8-8z m-36 145l127 127-43 43-127-127-11-54z m105 127l-13-13-21 21 13 13z m-134-92l89 89 21-21-89-89-26-5z"/>
<glyph unicode="&#57424;" d="M392 512l-272 0 0-512 272 0z m-16-16l0-48-240 0 0 48z m0-64l0-320-240 0 0 320z m-240-416l0 80 240 0 0-80z m88 464l64 0 0-16-64 0z m32-400c-13 0-24-11-24-24 0-13 11-24 24-24 13 0 24 11 24 24 0 13-11 24-24 24z m0-32c-4 0-8 4-8 8 0 4 4 8 8 8 4 0 8-4 8-8 0-4-4-8-8-8z m88 160l0 128-176 0 0-128z m-160 21l47 47 32-40 17 17 36-29-132 0z m128 91c9 0 16-7 16-16 0-9-7-16-16-16-9 0-16 7-16 16 0 9 7 16 16 16z m-28 0c-2-5-4-10-4-16 0-18 14-32 32-32 6 0 11 2 16 4l0-42-48 41-15-15-32 40-49-49 0 69z"/>
<glyph unicode="&#57425;" d="M392 512l-272 0 0-512 272 0z m-16-16l0-48-240 0 0 48z m0-64l0-320-240 0 0 320z m-240-416l0 80 240 0 0-80z m88 464l64 0 0-16-64 0z m32-400c-13 0-24-11-24-24 0-13 11-24 24-24 13 0 24 11 24 24 0 13-11 24-24 24z m0-32c-4 0-8 4-8 8 0 4 4 8 8 8 4 0 8-4 8-8 0-4-4-8-8-8z m0 144l16 0-14-19 13-10 25 32 0 10-25 32-13-10 14-19-16 0c-32 0-56 34-56 64l-16 0c0-38 31-80 72-80z m14 125l-14 19 16 0c32 0 56-34 56-64l16 0c0 38-31 80-72 80l-16 0 14 19-13 10-25-32 0-10 25-32z"/>
<glyph unicode="&#57426;" d="M392 512l-272 0 0-512 272 0z m-16-16l0-48-240 0 0 48z m0-64l0-320-240 0 0 320z m-240-416l0 80 240 0 0-80z m88 464l64 0 0-16-64 0z m32-400c-13 0-24-11-24-24 0-13 11-24 24-24 13 0 24 11 24 24 0 13-11 24-24 24z m0-32c-4 0-8 4-8 8 0 4 4 8 8 8 4 0 8-4 8-8 0-4-4-8-8-8z m-24 192c13 0 24 4 33 11l57-57 12 12-57 57c7 9 11 20 11 33 0 31-25 56-56 56-31 0-56-25-56-56 0-31 25-56 56-56z m0 96c22 0 40-18 40-40 0-22-18-40-40-40-22 0-40 18-40 40 0 22 18 40 40 40z"/>
<glyph unicode="&#57427;" d="M200 216l112 0c20 0 32 12 32 32 0 10-8 27-24 31-4 28-30 49-64 49-30 0-55-24-62-49-17-3-26-21-26-31 0-20 12-32 32-32z m0 48l7 0 1 6c4 20 25 42 48 42 23 0 48-14 48-40l0-8 8 0c11 0 16-12 16-16 0-11-5-16-16-16l-112 0c-12 0-16 4-16 16 0 4 5 16 16 16z m232 248l-352 0 0-512 352 0z m-16-16l0-48-320 0 0 48z m0-64l0-320-320 0 0 320z m-320-416l0 80 320 0 0-80z m128 464l64 0 0-16-64 0z m32-400c-13 0-24-11-24-24 0-13 11-24 24-24 13 0 24 11 24 24 0 13-11 24-24 24z m0-32c-4 0-8 4-8 8 0 4 4 8 8 8 4 0 8-4 8-8 0-4-4-8-8-8z"/>
<glyph unicode="&#57428;" d="M432 512l-352 0 0-512 352 0z m-16-16l0-48-320 0 0 48z m0-64l0-320-320 0 0 320z m-320-416l0 80 320 0 0-80z m156 177l4-2 4 2c3 2 84 46 84 103 0 27-21 48-48 48-17 0-31-9-40-21-9 12-23 21-40 21-27 0-48-21-48-48 0-57 81-101 84-103z m-36 135c18 0 32-14 32-32l16 0c0 18 14 32 32 32 19 0 32-13 32-32 0-42-57-78-72-87-15 9-72 45-72 87 0 19 13 32 32 32z m8 152l64 0 0-16-64 0z m32-400c-13 0-24-11-24-24 0-13 11-24 24-24 13 0 24 11 24 24 0 13-11 24-24 24z m0-32c-4 0-8 4-8 8 0 4 4 8 8 8 4 0 8-4 8-8 0-4-4-8-8-8z"/>
<glyph unicode="&#57429;" d="M199 215c16-15 36-23 57-23l0 0c44 0 80 36 80 80 0 21-8 41-23 57-16 15-36 23-57 23-21 0-41-8-57-23-15-16-23-36-23-57 0-21 8-41 23-57z m57 121c17 0 33-7 45-19 12-12 19-28 19-45 0-15-5-28-14-39l-89 90c11 8 25 13 39 13z m-51-25l90-89c-11-9-24-14-39-14-17 0-33 7-45 19-12 12-19 28-19 45 0 14 5 28 13 39z m227 201l-352 0 0-512 352 0z m-16-16l0-48-320 0 0 48z m0-64l0-320-320 0 0 320z m-320-416l0 80 320 0 0-80z m128 464l64 0 0-16-64 0z m32-400c-13 0-24-11-24-24 0-13 11-24 24-24 13 0 24 11 24 24 0 13-11 24-24 24z m0-32c-4 0-8 4-8 8 0 4 4 8 8 8 4 0 8-4 8-8 0-4-4-8-8-8z"/>
<glyph unicode="&#57430;" d="M200 184c18 0 32 14 32 32l0 81 64 13 0-50c-5 2-10 4-16 4-18 0-32-14-32-32 0-18 14-32 32-32 18 0 32 14 32 32l0 130-96-19 0-99c-5 2-10 4-16 4-18 0-32-14-32-32 0-18 14-32 32-32z m80 32c-9 0-16 7-16 16 0 9 7 16 16 16 9 0 16-7 16-16 0-9-7-16-16-16z m16 126l0-15-64-13 0 15z m-96-110c9 0 16-7 16-16 0-9-7-16-16-16-9 0-16 7-16 16 0 9 7 16 16 16z m232 280l-352 0 0-512 352 0z m-16-16l0-48-320 0 0 48z m0-64l0-320-320 0 0 320z m-320-416l0 80 320 0 0-80z m128 464l64 0 0-16-64 0z m32-400c-13 0-24-11-24-24 0-13 11-24 24-24 13 0 24 11 24 24 0 13-11 24-24 24z m0-32c-4 0-8 4-8 8 0 4 4 8 8 8 4 0 8-4 8-8 0-4-4-8-8-8z"/>
<glyph unicode="&#57431;" d="M220 193l127 127-43 43-127-127-11-54z m105 127l-13-13-21 21 13 13z m-134-92l89 89 21-21-89-89-26-5z m241 284l-352 0 0-512 352 0z m-16-16l0-48-320 0 0 48z m0-64l0-320-320 0 0 320z m-320-416l0 80 320 0 0-80z m128 464l64 0 0-16-64 0z m32-400c-13 0-24-11-24-24 0-13 11-24 24-24 13 0 24 11 24 24 0 13-11 24-24 24z m0-32c-4 0-8 4-8 8 0 4 4 8 8 8 4 0 8-4 8-8 0-4-4-8-8-8z"/>
<glyph unicode="&#57432;" d="M344 208l0 128-176 0 0-128z m-160 21l47 47 32-40 17 17 36-29-132 0z m128 91c9 0 16-7 16-16 0-9-7-16-16-16-9 0-16 7-16 16 0 9 7 16 16 16z m-28 0c-2-5-4-10-4-16 0-18 14-32 32-32 6 0 11 2 16 4l0-42-48 41-15-15-32 40-49-49 0 69z m148 192l-352 0 0-512 352 0z m-16-16l0-48-320 0 0 48z m0-64l0-320-320 0 0 320z m-320-416l0 80 320 0 0-80z m128 464l64 0 0-16-64 0z m32-400c-13 0-24-11-24-24 0-13 11-24 24-24 13 0 24 11 24 24 0 13-11 24-24 24z m0-32c-4 0-8 4-8 8 0 4 4 8 8 8 4 0 8-4 8-8 0-4-4-8-8-8z"/>
<glyph unicode="&#57433;" d="M256 192l16 0-14-19 13-10 25 32 0 10-25 32-13-10 14-19-16 0c-32 0-56 34-56 64l-16 0c0-38 31-80 72-80z m14 125l-14 19 16 0c32 0 56-34 56-64l16 0c0 38-31 80-72 80l-16 0 14 19-13 10-25-32 0-10 25-32z m162 195l-352 0 0-512 352 0z m-16-16l0-48-320 0 0 48z m0-64l0-320-320 0 0 320z m-320-416l0 80 320 0 0-80z m128 464l64 0 0-16-64 0z m32-400c-13 0-24-11-24-24 0-13 11-24 24-24 13 0 24 11 24 24 0 13-11 24-24 24z m0-32c-4 0-8 4-8 8 0 4 4 8 8 8 4 0 8-4 8-8 0-4-4-8-8-8z"/>
<glyph unicode="&#57434;" d="M232 240c13 0 24 4 33 11l57-57 12 12-57 57c7 9 11 20 11 33 0 31-25 56-56 56-31 0-56-25-56-56 0-31 25-56 56-56z m0 96c22 0 40-18 40-40 0-22-18-40-40-40-22 0-40 18-40 40 0 22 18 40 40 40z m200 176l-352 0 0-512 352 0z m-16-16l0-48-320 0 0 48z m0-64l0-320-320 0 0 320z m-320-416l0 80 320 0 0-80z m128 464l64 0 0-16-64 0z m32-400c-13 0-24-11-24-24 0-13 11-24 24-24 13 0 24 11 24 24 0 13-11 24-24 24z m0-32c-4 0-8 4-8 8 0 4 4 8 8 8 4 0 8-4 8-8 0-4-4-8-8-8z"/>
<glyph unicode="&#57435;" d="M326 480l-30 0 0 32-80 0 0-32-30 0-6-24-108 0 0-456 368 0 0 456-108 0z m-128-16l34 0 0 32 48 0 0-32 34 0 12-48-140 0z m148-64l46 0 0-352-272 0 0 352z m78 40l0-424-336 0 0 424 88 0-6-24-66 0 0-384 304 0 0 384-66 0-6 24z"/>
<glyph unicode="&#57436;" d="M240 195l-50 51-12-13 56-57 12 0 104 105-12 12z m86 285l-30 0 0 32-80 0 0-32-30 0-6-24-108 0 0-456 368 0 0 456-108 0z m-128-16l34 0 0 32 48 0 0-32 34 0 12-48-140 0z m226-24l0-424-336 0 0 424 88 0-10-40 180 0-10 40z"/>
<glyph unicode="&#57437;" d="M320 231c-4 28-30 49-64 49-30 0-55-24-62-49-17-3-26-21-26-31 0-20 12-32 32-32l112 0c20 0 32 12 32 32 0 10-8 27-24 31z m-8-47l-112 0c-12 0-16 4-16 16 0 4 5 16 16 16l7 0 1 6c4 20 25 42 48 42 23 0 48-14 48-40l0-8 8 0c11 0 16-12 16-16 0-11-5-16-16-16z m14 296l-30 0 0 32-80 0 0-32-30 0-6-24-108 0 0-456 368 0 0 456-108 0z m-128-16l34 0 0 32 48 0 0-32 34 0 12-48-140 0z m226-24l0-424-336 0 0 424 88 0-10-40 180 0-10 40z"/>
<glyph unicode="&#57438;" d="M264 171l0 141-16 0 0-141-50 51-12-13 64-65 12 0 64 65-12 12z m62 309l-30 0 0 32-80 0 0-32-30 0-6-24-108 0 0-456 368 0 0 456-108 0z m-128-16l34 0 0 32 48 0 0-32 34 0 12-48-140 0z m226-24l0-424-336 0 0 424 88 0-10-40 180 0-10 40z"/>
<glyph unicode="&#57439;" d="M326 480l-30 0 0 32-80 0 0-32-30 0-6-24-108 0 0-456 368 0 0 456-108 0z m-128-16l34 0 0 32 48 0 0-32 34 0 12-48-140 0z m226-24l0-424-336 0 0 424 88 0-10-40 180 0-10 40z m-200-128l0 16-16 0 0-184 16 0 0 88 126 0-25 40 25 40z m98-64l-98 0 0 48 98 0-16-24z"/>
<glyph unicode="&#57440;" d="M184 232l144 0 0-16-144 0z m142 248l-30 0 0 32-80 0 0-32-30 0-6-24-108 0 0-456 368 0 0 456-108 0z m-128-16l34 0 0 32 48 0 0-32 34 0 12-48-140 0z m226-24l0-424-336 0 0 424 88 0-10-40 180 0-10 40z"/>
<glyph unicode="&#57441;" d="M256 304c-21 0-41-8-57-23-15-16-23-36-23-57 0-21 8-41 23-57 16-15 36-23 57-23l0 0c44 0 80 36 80 80 0 21-8 41-23 57-16 15-36 23-57 23z m0-144c-17 0-33 7-45 19-12 12-19 28-19 45 0 14 5 28 13 39l90-89c-11-9-24-14-39-14z m50 25l-89 90c11 8 25 13 39 13 17 0 33-7 45-19 12-12 19-28 19-45 0-15-5-28-14-39z m20 295l-30 0 0 32-80 0 0-32-30 0-6-24-108 0 0-456 368 0 0 456-108 0z m-128-16l34 0 0 32 48 0 0-32 34 0 12-48-140 0z m226-24l0-424-336 0 0 424 88 0-10-40 180 0-10 40z"/>
<glyph unicode="&#57442;" d="M177 188l-11-54 54 11 127 127-43 43z m35-29l-26-5 5 26 89 89 21-21z m100 100l-21 21 13 13 21-21z m14 221l-30 0 0 32-80 0 0-32-30 0-6-24-108 0 0-456 368 0 0 456-108 0z m-128-16l34 0 0 32 48 0 0-32 34 0 12-48-140 0z m226-24l0-424-336 0 0 424 88 0-10-40 180 0-10 40z"/>
<glyph unicode="&#57443;" d="M264 296l-16 0 0-64-64 0 0-16 64 0 0-64 16 0 0 64 64 0 0 16-64 0z m62 184l-30 0 0 32-80 0 0-32-30 0-6-24-108 0 0-456 368 0 0 456-108 0z m-128-16l34 0 0 32 48 0 0-32 34 0 12-48-140 0z m226-24l0-424-336 0 0 424 88 0-10-40 180 0-10 40z"/>
<glyph unicode="&#57444;" d="M258 179l14-19-16 0c-32 0-56 34-56 64l-16 0c0-38 31-80 72-80l16 0-14-19 13-10 25 32 0 10-25 32z m14 125l-16 0 14 19-13 10-25-32 0-10 25-32 13 10-14 19 16 0c32 0 56-34 56-64l16 0c0 38-31 80-72 80z m54 176l-30 0 0 32-80 0 0-32-30 0-6-24-108 0 0-456 368 0 0 456-108 0z m-128-16l34 0 0 32 48 0 0-32 34 0 12-48-140 0z m226-24l0-424-336 0 0 424 88 0-10-40 180 0-10 40z"/>
<glyph unicode="&#57445;" d="M306 286l-50-51-50 51-12-12 51-50-51-50 12-12 50 51 50-51 12 12-51 50 51 50z m20 194l-30 0 0 32-80 0 0-32-30 0-6-24-108 0 0-456 368 0 0 456-108 0z m-128-16l34 0 0 32 48 0 0-32 34 0 12-48-140 0z m226-24l0-424-336 0 0 424 88 0-10-40 180 0-10 40z"/>
<glyph unicode="&#57446;" d="M288 248c0 31-25 56-56 56-31 0-56-25-56-56 0-31 25-56 56-56 13 0 24 4 33 11l57-57 12 12-57 57c7 9 11 20 11 33z m-96 0c0 22 18 40 40 40 22 0 40-18 40-40 0-22-18-40-40-40-22 0-40 18-40 40z m134 232l-30 0 0 32-80 0 0-32-30 0-6-24-108 0 0-456 368 0 0 456-108 0z m-128-16l34 0 0 32 48 0 0-32 34 0 12-48-140 0z m226-24l0-424-336 0 0 424 88 0-10-40 180 0-10 40z"/>
<glyph unicode="&#57447;" d="M326 480l-30 0 0 32-80 0 0-32-30 0-6-24-108 0 0-456 368 0 0 456-108 0z m-128-16l34 0 0 32 48 0 0-32 34 0 12-48-140 0z m226-24l0-424-336 0 0 424 88 0-10-40 180 0-10 40z m-88-192l-50 0-23 59c-1 3-4 5-7 5-3 0-6-2-8-5l-20-59-52 0c-4 0-7-2-8-6-1-3 1-7 4-9l43-28-16-51c-1-3 1-6 3-8 3-2 7-3 9-1l45 29 43-29c1-1 3-1 5-1 1 0 3 0 4 2 3 1 4 5 3 8l-14 51 43 28c3 2 5 6 4 9-1 4-4 6-8 6z m-52-33c-3-2-5-6-4-9l10-35-30 20c-2 1-6 1-8 0l-31-20 11 35c1 3-1 7-4 9l-26 17 32 0c3 0 6 2 7 5l15 43 17-43c1-3 4-5 7-5l30 0z"/>
<glyph unicode="&#57448;" d="M250 312l-64-65 12-12 50 50 0-141 16 0 0 141 50-51 12 13-64 65z m76 168l-30 0 0 32-80 0 0-32-30 0-6-24-108 0 0-456 368 0 0 456-108 0z m-128-16l34 0 0 32 48 0 0-32 34 0 12-48-140 0z m226-24l0-424-336 0 0 424 88 0-10-40 180 0-10 40z"/>
<glyph unicode="&#57449;" d="M482 280l-452 0c-1 0-3 0-4-2-1-1-2-3-1-5l48-195c2-5 5-17 18-17l330 0c13 0 16 12 18 17l48 195c1 2 0 4-1 5-1 2-3 2-4 2z m-55-199c-2-8-5-8-6-8l-330 0c-1 0-4 0-6 8l-47 187 436 0z m-201 29c3 0 6 2 6 6l0 110c0 3-3 6-6 6-4 0-7-3-7-6l0-110c0-4 3-6 7-6z m-86 0c0 0 1 0 1 0 3 0 6 3 5 6l-12 110c0 4-3 6-7 6-3-1-5-4-5-7l12-110c0-3 3-5 6-5z m159 0c3 0 6 2 6 6l0 110c0 3-3 6-6 6-4 0-6-3-6-6l0-110c0-4 2-6 6-6z m72 0c0 0 1 0 1 0 3 0 6 2 6 5l12 110c0 3-2 6-5 7-4 0-7-2-7-6l-12-110c-1-3 2-6 5-6z m50 195c1 0 2 0 4 1 2 2 2 6 0 9l-116 134c-2 2-6 3-8 1-3-3-3-6-1-9l116-134c1-2 3-2 5-2z m-204 145c-2 2-6 1-8-1l-110-134c-2-3-2-7 1-9 1-1 2-1 4-1 1 0 3 1 4 2l110 134c2 3 2 7-1 9z m289-121l-49 0c-3 0-6-3-6-6 0-3 3-6 6-6l49 0c3 0 6 3 6 6 0 3-3 6-6 6z m-341-12l195 0c3 0 6 3 6 6 0 3-3 6-6 6l-195 0c-4 0-7-3-7-6 0-3 3-6 7-6z m-159 0l61 0c3 0 6 3 6 6 0 3-3 6-6 6l-61 0c-3 0-6-3-6-6 0-3 3-6 6-6z"/>
<glyph unicode="&#57450;" d="M320 496c4 0 8 4 8 8 0 4-4 8-8 8l-144 0c-4 0-8-4-8-8 0-4 4-8 8-8z m-264-426c-17-24-15-40-11-49 5-10 18-21 51-21l320 0c33 0 46 11 51 21 4 9 6 25-11 48l-99 160-1 2c-8 10-44 73-44 125l0 116c0 4-4 8-8 8l-112 0c-4 0-8-4-8-8l0-116c0-56-39-127-40-128z m397-42c-4-8-18-12-37-12l-320 0c-19 0-33 4-37 12-3 7 0 19 10 33l80 143 0 0c15-8 30-17 60-17 30 0 45 9 59 17 14 8 26 15 52 15 10 0 18-1 26-3l97-155c10-14 13-26 10-33z m-253 328l0 108 96 0 0-108c0-45 24-97 38-122-4 1-9 1-14 1-30 0-45-8-60-17-13-7-25-15-51-15-26 0-38 8-52 15l0 0 1 2c0 0 42 75 42 136z"/>
<glyph unicode="&#57451;" d="M416 302c-18 0-34-5-48-13l-62 95 87 0c0-5-1-12-6-18-5-6-14-9-26-9-2 0-4-2-4-5 0-3 2-5 4-5 15 0 26 5 33 13 10 12 8 28 8 29 0 2-2 4-4 4l-101 0c-2 0-3-1-4-2-1-2-1-4 0-5l26-40-145 0-28 47 51 0c2 0 4 2 4 5 0 2-2 4-4 4l-83 0c-2 0-4-2-4-4 0-3 2-5 4-5l21 0c1 0 1 0 1 0l31-52-28-50c-13 7-28 11-43 11-53 0-96-43-96-96 0-53 43-96 96-96 51 0 93 40 95 91l102 0c0-5-1-12-6-18-6-6-15-9-26-9-3 0-5-2-5-5 0-2 2-4 5-4 14 0 25 4 33 12 10 12 8 28 8 28 0 3-2 4-5 4l-35 0 64 127 34-52c-24-18-40-46-40-78 0-53 43-96 96-96 53 0 96 43 96 96 0 53-43 96-96 96z m-100 36l-62-124-74 124z m-144-6l74-123-54 0c-1 33-19 62-45 78z m11-123l-80 0 39 70c24-15 39-40 41-70z m-87-90c-48 0-87 39-87 87 0 48 39 87 87 87 14 0 27-4 38-10l-43-76c-1-1-1-3 0-4 1-2 2-3 4-2l88 0c-3-46-41-82-87-82z m320 0c-48 0-87 39-87 87 0 29 14 54 36 70l48-74c1-1 2-2 4-2 1 0 2 0 2 1 2 1 3 4 2 6l-48 74c13 7 27 12 43 12 48 0 87-39 87-87 0-48-39-87-87-87z"/>
<glyph unicode="&#57452;" d="M457 439l-195 0c-5 0-9-2-12-5-3 3-7 5-12 5l-195 0c-11 0-19-8-19-18l0-342c0-10 8-18 19-18l195 0c5 0 9 2 12 4 3-2 7-4 12-4l195 0c11 0 18 8 18 18l0 342c0 10-7 18-18 18z m-219-366l-195 0c-4 0-6 2-6 6l0 342c0 3 2 6 6 6l195 0c4 0 6-3 6-6l0-342c0-4-2-6-6-6z m225 6c0-4-2-6-6-6l-195 0c-4 0-6 2-6 6l0 342c0 3 2 6 6 6l195 0c4 0 6-3 6-6z m31 335c-4 0-6-2-6-6l0-317c0-3 2-6 6-6 3 0 6 3 6 6l0 317c0 4-3 6-6 6z m-488-329c3 0 6 3 6 6l0 317c0 4-3 6-6 6-3 0-6-2-6-6l0-317c0-3 3-6 6-6z m207 244l-146 0c-3 0-6-3-6-6 0-3 3-6 6-6l146 0c4 0 6 3 6 6 0 3-2 6-6 6z m0-49l-146 0c-3 0-6-2-6-6 0-3 3-6 6-6l146 0c4 0 6 3 6 6 0 4-2 6-6 6z m0 98l-146 0c-3 0-6-3-6-6 0-4 3-6 6-6l146 0c4 0 6 2 6 6 0 3-2 6-6 6z m0-146l-146 0c-3 0-6-3-6-6 0-4 3-7 6-7l146 0c4 0 6 3 6 7 0 3-2 6-6 6z m0-49l-146 0c-3 0-6-3-6-6 0-4 3-6 6-6l146 0c4 0 6 2 6 6 0 3-2 6-6 6z m0-49l-146 0c-3 0-6-3-6-6 0-3 3-6 6-6l146 0c4 0 6 3 6 6 0 3-2 6-6 6z m220 195l-147 0c-3 0-6-3-6-6 0-3 3-6 6-6l147 0c3 0 6 3 6 6 0 3-3 6-6 6z m0-49l-147 0c-3 0-6-2-6-6 0-3 3-6 6-6l147 0c3 0 6 3 6 6 0 4-3 6-6 6z m0 98l-147 0c-3 0-6-3-6-6 0-4 3-6 6-6l147 0c3 0 6 2 6 6 0 3-3 6-6 6z m0-146l-147 0c-3 0-6-3-6-6 0-4 3-7 6-7l147 0c3 0 6 3 6 7 0 3-3 6-6 6z m0-49l-147 0c-3 0-6-3-6-6 0-4 3-6 6-6l147 0c3 0 6 2 6 6 0 3-3 6-6 6z m0-49l-147 0c-3 0-6-3-6-6 0-3 3-6 6-6l147 0c3 0 6 3 6 6 0 3-3 6-6 6z"/>
<glyph unicode="&#57453;" d="M505 229c-3 0-6-3-6-7l0-161c0-4-3-7-7-7l-472 0c-4 0-7 3-7 7l0 161c0 4-3 7-6 7-4 0-7-3-7-7l0-161c0-12 9-21 20-21l472 0c11 0 20 9 20 21l0 161c0 4-3 7-7 7z m-161 175c3 0 6 3 6 7l0 40c0 12-9 21-20 21l-148 0c-11 0-20-9-20-21l0-40c0-4 3-7 6-7 4 0 7 3 7 7l0 40c0 4 3 7 7 7l148 0c4 0 7-3 7-7l0-40c0-4 3-7 7-7z m148-27l-472 0c-11 0-20-9-20-20l0-67c0-37 127-87 258-87 128 0 254 50 254 87l0 67c0 11-9 20-20 20z m7-87c0-24-114-74-241-74-129 0-245 50-245 74l0 67c0 4 3 7 7 7l472 0c4 0 7-3 7-7z m-241-128c12 0 26 0 39 1 4 1 6 4 6 7 0 4-3 7-7 7-27-2-53-2-80 0-3 0-7-2-7-6 0-4 2-7 6-7 14-2 29-2 43-2z"/>
<glyph unicode="&#57454;" d="M506 329c-3 0-6-3-6-6l0-244c0-3-3-6-6-6l-476 0c-3 0-6 3-6 6l0 244c0 3-3 6-6 6-3 0-6-3-6-6l0-244c0-10 8-18 18-18l476 0c10 0 18 8 18 18l0 244c0 3-3 6-6 6z m-12 122l-476 0c-10 0-18-8-18-18l0-73c0-4 3-6 6-6l500 0c3 0 6 2 6 6l0 73c0 10-8 18-18 18z m6-85l-488 0 0 67c0 3 3 6 6 6l476 0c3 0 6-3 6-6z m-287-256c4 0 6 2 6 6l0 195c0 3-2 6-6 6l-158 0c-4 0-6-3-6-6l0-195c0-4 2-6 6-6z m-152 195l146 0 0-183-146 0z m213-37l183 0c4 0 6 3 6 6 0 4-2 6-6 6l-183 0c-3 0-6-2-6-6 0-3 3-6 6-6z m0-61l183 0c4 0 6 3 6 6 0 4-2 6-6 6l-183 0c-3 0-6-2-6-6 0-3 3-6 6-6z m0-61l183 0c4 0 6 3 6 6 0 4-2 6-6 6l-183 0c-3 0-6-2-6-6 0-3 3-6 6-6z m-213 256c0-6-6-12-12-12-7 0-12 6-12 12 0 7 5 12 12 12 6 0 12-5 12-12z m49 0c0-6-6-12-12-12-7 0-13 6-13 12 0 7 6 12 13 12 6 0 12-5 12-12z m48 0c0-6-5-12-12-12-6 0-12 6-12 12 0 7 6 12 12 12 7 0 12-5 12-12z"/>
<glyph unicode="&#57455;" d="M512 38l0 286c0 4-3 7-8 7-4 0-7-3-7-7l0-286c0-5-3-8-8-8l-466 0c-5 0-8 3-8 8l0 286c0 4-3 7-7 7-5 0-8-3-8-7l0-286c0-13 10-23 23-23l466 0c13 0 23 10 23 23z m-444 113c-4 0-8-4-8-8 0-4 4-7 8-7l22 0 0-53c0-4 4-8 8-8 4 0 7 4 7 8l0 53 91 0 0-53c0-4 3-8 7-8 4 0 8 4 8 8l0 53 90 0 0-53c0-4 4-8 8-8 4 0 7 4 7 8l0 53 91 0 0-53c0-4 3-8 7-8 4 0 8 4 8 8l0 53 22 0c4 0 8 3 8 7 0 4-4 8-8 8l-22 0 0 75 22 0c4 0 8 3 8 7 0 5-4 8-8 8l-22 0 0 68c0 4-4 7-8 7-4 0-7-3-7-7l0-68-91 0 0 68c0 4-3 7-7 7-4 0-8-3-8-7l0-68-90 0 0 68c0 4-4 7-8 7-4 0-7-3-7-7l0-68-91 0 0 68c0 4-3 7-7 7-4 0-8-3-8-7l0-68-22 0c-4 0-8-3-8-8 0-4 4-7 8-7l22 0 0-75z m339 75l0-75-91 0 0 75z m-106 0l0-75-90 0 0 75z m-196 0l91 0 0-75-91 0z m324 226l64 0c1 0 4 0 4-8l0-68-482 0 0 68c0 4 3 8 8 8l60 0c4 0 7 3 7 7 0 4-3 8-7 8l-60 0c-13 0-23-10-23-23l0-75c0-4 3-8 8-8l496 0c5 0 8 4 8 8l0 75c0 17-10 23-19 23l-64 0c-4 0-7-4-7-8 0-4 3-7 7-7z m-90 0c4 0 7 3 7 7 0 4-3 8-7 8l-166 0c-4 0-7-4-7-8 0-4 3-7 7-7z m-203-23l0 60c0 5-4 8-8 8-4 0-8-3-8-8l0-60c0-4 4-7 8-7 4 0 8 3 8 7z m248-7c4 0 8 3 8 7l0 60c0 5-4 8-8 8-4 0-8-3-8-8l0-60c0-4 4-7 8-7z"/>
<glyph unicode="&#57456;" d="M482 378l-92 0c-23 0-24 22-24 24l0 12c0 16-17 37-49 37l-122 0c-35 0-48-22-48-37l0-12c0-1-1-24-25-24l-92 0c-16 0-30-14-30-31l0-219c0-17 14-30 30-30l74 0c3 0 6 2 6 6 0 3-3 6-6 6l-74 0c-10 0-18 8-18 18l0 152 98 0c-8-18-12-39-12-61 0-87 71-158 158-158 87 0 158 71 158 158 0 22-4 43-12 61l98 0 0-152c0-10-8-18-18-18l-86 0c-3 0-6-3-6-6 0-4 3-6 6-6l86 0c16 0 30 13 30 30l0 219c0 17-14 31-30 31z m-226-305c-81 0-146 66-146 146 0 81 65 147 146 147 81 0 146-66 146-147 0-80-65-146-146-146z m143 220c-1 0-2-1-2-1-27 51-80 86-141 86-61 0-114-35-141-86 0 0-1 1-2 1l-101 0 0 54c0 11 8 19 18 19l92 0c29 0 37 24 37 36l0 12c0 10 10 25 36 25l122 0c25 0 37-16 37-25l0-12c0-12 7-36 36-36l92 0c10 0 18-8 18-19l0-54z m-283 97c3 0 6 3 6 6l0 12c0 10-8 19-18 19l-49 0c-10 0-18-9-18-19l0-12c0-3 2-6 6-6 3 0 6 3 6 6l0 12c0 4 3 6 6 6l49 0c3 0 6-2 6-6l0-12c0-3 2-6 6-6z m140-61c-60 0-110-49-110-110 0-60 50-109 110-109 61 0 110 49 110 109 0 61-49 110-110 110z m0-207c-54 0-98 44-98 97 0 54 44 98 98 98 54 0 98-44 98-98 0-53-44-97-98-97z"/>
<glyph unicode="&#57457;" d="M319 447c-16 28-38 43-62 43-24 0-46-15-62-43l-180-309c-16-29-18-58-4-81 12-22 37-35 68-35l356 0c0 0 0 0 0 0 31 0 56 13 68 34 13 23 12 53-5 81z m172-383c-10-17-31-27-56-27l-356 0c-25 0-46 10-56 27-10 18-9 43 5 66l180 309c13 24 31 36 49 36 18 0 36-12 49-36l180-309c13-24 15-48 5-66z m-234 133c4 0 7 4 7 8l0 146c0 4-3 7-7 7-4 0-7-3-7-7l0-146c0-4 3-8 7-8z m-1-36c-16 0-29-13-29-29 0-16 13-30 29-30 16 0 29 14 29 30 0 16-13 29-29 29z m0-44c-8 0-15 7-15 15 0 8 7 14 15 14 8 0 15-6 15-14 0-8-7-15-15-15z"/>
<glyph unicode="&#57458;" d="M435 280c-4 1-7-1-8-4-1-3 1-6 4-8 48-15 69-37 69-73 0-32-29-56-46-68-2-1-3-3-3-5l0-47c-9 4-24 11-38 27-1 1-4 2-6 2-3-1-7-2-10-3-7-2-13-3-19-3-31 0-53 6-76 23-2 2-6 1-8-2-2-2-2-6 1-8 25-18 49-26 83-26 8 0 15 2 22 4 2 1 4 1 6 2 23-24 49-30 50-30 0 0 1 0 1 0 2 0 3 0 4 1 1 1 2 3 2 5l0 52c32 22 49 49 49 76 0 41-25 68-77 85z m-33 6c0 94-85 165-199 165-114 0-203-72-203-165 0-55 39-95 73-119l0-80c0-2 1-4 3-6 1 0 2-1 3-1 1 0 2 1 3 1 2 1 43 20 79 59 15-3 33-6 48-6 116 0 193 61 193 152z m-193-140c-16 0-34 3-49 6-2 1-5 0-6-2-25-28-54-46-69-53l0 74c0 2-1 4-2 5-32 22-71 59-71 110 0 86 84 153 191 153 107 0 187-66 187-153 0-83-73-140-181-140z m-8 165c-13 0-24-11-24-25 0-13 11-24 24-24 14 0 25 11 25 24 0 14-11 25-25 25z m0-37c-7 0-12 6-12 12 0 7 5 13 12 13 7 0 12-6 12-13 0-6-5-12-12-12z m85 37c-13 0-24-11-24-25 0-13 11-24 24-24 14 0 25 11 25 24 0 14-11 25-25 25z m0-37c-6 0-12 6-12 12 0 7 6 13 12 13 7 0 13-6 13-13 0-6-6-12-13-12z m-170 36c-14 0-25-11-25-25 0-13 11-24 25-24 13 0 24 11 24 24 0 14-11 25-24 25z m0-37c-7 0-12 6-12 12 0 7 5 13 12 13 7 0 12-6 12-13 0-6-5-12-12-12z"/>
<glyph unicode="&#57459;" d="M256 416c5 0 8 4 8 8l0 24 8 0c4 0 8 4 8 8l0 48c0 4-4 8-8 8l-32 0c-4 0-8-4-8-8l0-48c0-4 4-8 8-8l8 0 0-24c0-4 4-8 8-8z m-8 80l16 0 0-32-16 0z m-172-493c1-1 3-1 4-1 3 0 6 2 7 4l69 131c31-15 65-24 100-24 36 0 70 9 100 24l69-131c1-2 4-4 7-4 1 0 3 0 4 1 4 2 5 7 3 11l-69 131c16 9 31 20 45 34 15 15 15 41 0 56-16 15-42 15-57 0-8-7-16-14-25-19l-37 72c14 11 24 29 24 49 0 35-29 64-64 64-35 0-63-29-63-64 0-20 9-38 24-49l-38-72c-9 5-17 12-25 19-15 15-41 15-56 0-16-15-16-41 0-56 13-14 28-25 44-34l-69-131c-2-4-1-9 3-11z m50 228c7 0 13-2 17-7 30-30 70-47 113-47 43 0 83 17 113 47 9 9 25 9 34 0 10-9 10-25 0-34-39-39-91-61-147-61-55 0-108 22-147 61-9 9-9 25 0 34 5 4 11 7 17 7z m83 106c0 26 21 48 47 48 26 0 48-22 48-48 0-26-22-47-48-47-26 0-47 21-47 47z m21-58c8-3 17-5 26-5 9 0 18 2 26 5l37-71c-19-10-41-15-63-15-22 0-44 5-63 15z"/>
<glyph unicode="&#57460;" d="M56 0l400 0c14 0 24 10 24 24l0 448c0 14-10 24-24 24l-64 0c-4 0-8-4-8-8 0-4 4-8 8-8l64 0c5 0 8-3 8-8l0-448c0-5-3-8-8-8l-400 0c-5 0-8 3-8 8l0 448c0 5 3 8 8 8l64 0c4 0 8 4 8 8 0 4-4 8-8 8l-64 0c-14 0-24-10-24-24l0-448c0-14 10-24 24-24z m64 432c4 0 8 4 8 8 0 4-4 8-8 8l-32 0c-4 0-8-4-8-8l0-384c0-4 4-8 8-8l336 0c4 0 8 4 8 8l0 384c0 4-4 8-8 8l-32 0c-4 0-8-4-8-8 0-4 4-8 8-8l24 0 0-368-320 0 0 368z m56-32l160 0c19 0 32 13 32 32l0 72c0 4-4 8-8 8l-208 0c-4 0-8-4-8-8l0-72c0-19 13-32 32-32z m-16 96l192 0 0-64c0-11-5-16-16-16l-160 0c-11 0-16 5-16 16z m8-240l176 0c4 0 8 4 8 8 0 4-4 8-8 8l-176 0c-4 0-8-4-8-8 0-4 4-8 8-8z m0 64l176 0c4 0 8 4 8 8 0 4-4 8-8 8l-176 0c-4 0-8-4-8-8 0-4 4-8 8-8z m0-128l176 0c4 0 8 4 8 8 0 4-4 8-8 8l-176 0c-4 0-8-4-8-8 0-4 4-8 8-8z m0-64l176 0c4 0 8 4 8 8 0 4-4 8-8 8l-176 0c-4 0-8-4-8-8 0-4 4-8 8-8z"/>
<glyph unicode="&#57461;" d="M256 0c141 0 256 115 256 256 0 141-115 256-256 256-141 0-256-115-256-256 0-141 115-256 256-256z m0 496c132 0 240-108 240-240 0-132-108-240-240-240-132 0-240 108-240 240 0 132 108 240 240 240z m65-332c2-2 4-3 6-3 2 0 4 1 5 3 3 3 3 8 0 11l-76 76 0 112c0 4-4 8-8 8-4 0-8-4-8-8l0-115c0-2 1-4 2-6z m-241 92c0-9-7-16-16-16-9 0-16 7-16 16 0 9 7 16 16 16 9 0 16-7 16-16z m384 0c0-9-7-16-16-16-9 0-16 7-16 16 0 9 7 16 16 16 9 0 16-7 16-16z m-192 192c0-9-7-16-16-16-9 0-16 7-16 16 0 9 7 16 16 16 9 0 16-7 16-16z m0-384c0-9-7-16-16-16-9 0-16 7-16 16 0 9 7 16 16 16 9 0 16-7 16-16z m-128 320c0-9-7-16-16-16-9 0-16 7-16 16 0 9 7 16 16 16 9 0 16-7 16-16z m256-256c0-9-7-16-16-16-9 0-16 7-16 16 0 9 7 16 16 16 9 0 16-7 16-16z m16 256c0-9-7-16-16-16-9 0-16 7-16 16 0 9 7 16 16 16 9 0 16-7 16-16z m-272-256c0-9-7-16-16-16-9 0-16 7-16 16 0 9 7 16 16 16 9 0 16-7 16-16z"/>
<glyph unicode="&#57462;" d="M414 293c-5 80-61 158-164 158-94 0-167-70-170-163-52-16-80-71-80-111 0-62 51-116 110-116l292 0c59 0 110 64 110 116 0 63-51 112-98 116z m-12-220l-292 0c-52 0-98 49-98 104 0 37 33 103 98 103l18 0c3 0 6 3 6 6 0 4-3 7-6 7l-18 0c-6 0-12-1-18-2 5 73 60 148 158 148 105 0 152-82 152-159l0-18c0-3 3-6 6-6 4 0 6 3 6 6l0 18c0 0 0 0 0 0 37-4 86-43 86-103 0-47-45-104-98-104z"/>
<glyph unicode="&#57463;" d="M0 256c0-141 115-256 256-256 141 0 256 115 256 256 0 141-115 256-256 256-141 0-256-115-256-256z m256 240c132 0 240-108 240-240 0-132-108-240-240-240-132 0-240 108-240 240 0 132 108 240 240 240z m0-448c115 0 208 93 208 208 0 115-93 208-208 208-115 0-208-93-208-208 0-115 93-208 208-208z m-16 399l0-24c0-5 4-8 8-8 4 0 8 3 8 8l0 25c100 0 183-78 191-176l-24 0c-5 0-8-4-8-8 0-4 3-8 8-8l25 0c0-106-86-192-192-192l0 25c0 5-4 8-8 8-4 0-8-3-8-8l0-24c-98 8-176 91-176 191l25 0c5 0 8 4 8 8 0 4-3 8-8 8l-24 0c8 93 82 167 175 175z m-90-304c2 0 3 1 5 2l90 64c3 0 7-1 11-1 26 0 48 21 48 48 0 4-1 7-1 11l65 91c3 4 2 8-1 11-2 2-7 3-10 1l-92-67c-3 1-6 1-9 1-26 0-48-22-48-48 0-3 0-6 1-9l-65-91c-3-3-2-8 1-10 1-2 3-3 5-3z m74 113c0 18 14 32 32 32 18 0 32-14 32-32 0-18-14-32-32-32-18 0-32 14-32 32z m103 72l-32-44c-3 5-8 9-13 12z m-111-99c3-4 7-9 12-12l-43-31z"/>
<glyph unicode="&#57464;" d="M20 138l229 0 0-20c0-3 3-6 7-6 4 0 7 3 7 6l0 20 229 0c11 0 20 9 20 20l0 288c0 11-9 20-20 20l-472 0c-11 0-20-9-20-20l0-288c0-11 9-20 20-20z m-7 308c0 4 3 7 7 7l472 0c4 0 7-3 7-7l0-288c0-4-3-7-7-7l-472 0c-4 0-7 3-7 7z m33-269l420 0c4 0 7 3 7 7l0 236c0 4-3 7-7 7l-420 0c-4 0-7-3-7-7l0-236c0-4 3-7 7-7z m7 237l406 0 0-224-406 0z m131-316c-15 0-26-11-26-26l0-19c0-4 2-7 6-7l184 0c4 0 6 3 6 7l0 18c0 15-11 27-26 27z m157-27l0-12-170 0 0 13c0 8 5 13 13 13l144 0c8 0 13-6 13-14z"/>
<glyph unicode="&#57465;" d="M256 336c-44 0-80-36-80-79 0-44 35-81 79-81 0 0 1 0 1 0 44 0 80 36 80 79 0 44-35 81-80 81z m0-144l0-8-1 8c-35 0-63 29-63 65 0 35 29 63 65 63 35 0 63-29 63-65 0-35-29-63-64-63z m-224 64c0-9-7-16-16-16-9 0-16 7-16 16 0 9 7 16 16 16 9 0 16-7 16-16z m480 0c0-9-7-16-16-16-9 0-16 7-16 16 0 9 7 16 16 16 9 0 16-7 16-16z m-240 240c0-9-7-16-16-16-9 0-16 7-16 16 0 9 7 16 16 16 9 0 16-7 16-16z m0-480c0-9-7-16-16-16-9 0-16 7-16 16 0 9 7 16 16 16 9 0 16-7 16-16z m-176 416c0-9-7-16-16-16-9 0-16 7-16 16 0 9 7 16 16 16 9 0 16-7 16-16z m352-352c0-9-7-16-16-16-9 0-16 7-16 16 0 9 7 16 16 16 9 0 16-7 16-16z m0 352c0-9-7-16-16-16-9 0-16 7-16 16 0 9 7 16 16 16 9 0 16-7 16-16z m-352-352c0-9-7-16-16-16-9 0-16 7-16 16 0 9 7 16 16 16 9 0 16-7 16-16z m288 175l0 121c0 4-4 8-8 8l-120 0c-70 0-127-57-128-127 0-34 13-66 37-91 24-24 56-38 90-38 0 0 1 0 1 0 70 0 127 57 128 127z m-128-111l0-8-1 8c-30 0-58 12-79 34-21 21-32 49-32 79 1 61 51 111 113 111l111 0 0-113c-1-61-51-111-112-111z"/>
<glyph unicode="&#57466;" d="M88 0l336 0c13 0 24 11 24 24l0 336c0 0 0 0 0 1 0 0 0 0 0 1-1 1-1 2-2 3 0 0 0 0 0 0l-128 144c0 0 0 0 0 0-1 1-2 2-4 3 0 0 0 0-1 0 0 0-1 0-1 0l-224 0c-13 0-24-11-24-24l0-464c0-13 11-24 24-24z m232 483l102-115-94 0c-4 0-8 7-8 12z m-240 5c0 4 4 8 8 8l216 0 0-116c0-13 10-28 24-28l104 0 0-328c0-4-4-8-8-8l-336 0c-4 0-8 4-8 8z m72-200l208 0c4 0 8 4 8 8 0 4-4 8-8 8l-208 0c-4 0-8-4-8-8 0-4 4-8 8-8z m0-64l208 0c4 0 8 4 8 8 0 4-4 8-8 8l-208 0c-4 0-8-4-8-8 0-4 4-8 8-8z m0 128l96 0c4 0 8 4 8 8 0 4-4 8-8 8l-96 0c-4 0-8-4-8-8 0-4 4-8 8-8z m0-192l208 0c4 0 8 4 8 8 0 4-4 8-8 8l-208 0c-4 0-8-4-8-8 0-4 4-8 8-8z m0-64l208 0c4 0 8 4 8 8 0 4-4 8-8 8l-208 0c-4 0-8-4-8-8 0-4 4-8 8-8z"/>
<glyph unicode="&#57467;" d="M23 75l271 0c12 0 22 10 22 23l0 286c0 0 0 1 0 1 0 0 0 1 0 1-1 1-1 2-2 3l-105 106c-1 1-3 1-4 2 0 0 0 0-1 0 0 0 0 0-1 0l-180 0c-13 0-23-10-23-23l0-376c0-13 10-23 23-23z m188 396l80-79-73 0c-4 0-7 3-7 7z m-196 3c0 5 3 8 8 8l173 0 0-83c0-12 10-23 22-23l83 0 0-278c0-4-3-8-7-8l-271 0c-4 0-8 4-8 8z m53-158l180 0c5 0 8 4 8 8 0 4-3 7-8 7l-180 0c-4 0-8-3-8-7 0-4 4-8 8-8z m0-60l180 0c5 0 8 3 8 8 0 4-3 7-8 7l-180 0c-4 0-8-3-8-7 0-5 4-8 8-8z m0 120l75 0c4 0 8 4 8 8 0 4-4 8-8 8l-75 0c-4 0-8-4-8-8 0-4 4-8 8-8z m0-180l180 0c5 0 8 3 8 7 0 4-3 8-8 8l-180 0c-4 0-8-4-8-8 0-4 4-7 8-7z m0-60l180 0c5 0 8 3 8 7 0 4-3 8-8 8l-180 0c-4 0-8-4-8-8 0-4 4-7 8-7z m256 286l68 0 0-83c0-13 10-23 22-23l83 0 0-278c0-5-3-8-8-8l-270 0c-5 0-8 3-8 8l0 15c0 4-4 7-8 7-4 0-7-3-7-7l0-15c0-13 10-23 23-23l270 0c13 0 23 10 23 23l0 286c0 0 0 0 0 1 0 0 0 0 0 1-1 1-1 2-2 3l-106 105c-1 1-2 2-3 2 0 0-1 0-1 1 0 0-1 0-1 0l-75 0c-4 0-8-4-8-8 0-4 4-7 8-7z m90-91c-4 0-7 4-7 8l0 72 79-80z m-60-75l90 0c4 0 8 3 8 8 0 4-4 7-8 7l-90 0c-4 0-8-3-8-7 0-5 4-8 8-8z m0-60l90 0c4 0 8 3 8 7 0 4-4 8-8 8l-90 0c-4 0-8-4-8-8 0-4 4-7 8-7z m0-60l90 0c4 0 8 3 8 7 0 4-4 8-8 8l-90 0c-4 0-8-4-8-8 0-4 4-7 8-7z m0-61l90 0c4 0 8 4 8 8 0 4-4 7-8 7l-90 0c-4 0-8-3-8-7 0-4 4-8 8-8z"/>
<glyph unicode="&#57468;" d="M414 293c-5 80-61 158-164 158-13 0-25-1-37-4-3 0-5-3-5-7 1-3 4-5 8-5 11 3 22 4 34 4 105 0 152-82 152-159l0-18c0-3 3-6 6-6 4 0 6 3 6 6l0 18c0 0 0 1 0 1 38-4 86-36 86-104 0-58-43-104-98-104l-292 0c-49 0-98 36-98 104 0 50 31 103 98 103l18 0c3 0 6 3 6 6 0 4-3 7-6 7l-18 0 0 24c0 45 28 74 73 74 41 0 73-33 73-74l0-158-51 47c-2 2-6 2-8-1-3-2-2-6 0-8l55-51c4-4 7-6 10-6 3 0 6 2 10 5l55 52c3 2 3 6 1 8-3 3-7 3-9 1l-51-47 0 158c0 48-37 86-85 86-52 0-85-34-85-86l0-25c-65-6-98-61-98-115 0-56 38-116 110-116l292 0c62 0 110 51 110 116 0 77-56 113-98 116z"/>
<glyph unicode="&#57469;" d="M256 513c-141 0-257-116-257-257 0-141 116-257 257-257 141 0 257 116 257 257 0 141-116 257-257 257z m0-496c-132 0-239 107-239 239 0 132 107 239 239 239 132 0 239-107 239-239 0-132-107-239-239-239z m94 327c-25 26-58 41-94 41-17 0-33-4-49-10-44-18-74-59-79-106 0-4-1-9-1-13 0-39 18-75 48-100 23-18 52-29 81-29 19 0 37 4 54 12 34 16 60 47 70 84 0 0 0 0 0 0 3 11 5 22 5 33 0 33-13 64-35 88z m15-109c-2 1-5 1-8 1-4 1-7 2-11 2-5 1-9 1-13 1-4 1-7 1-10 1-1 0-3 0-4 0-5 0-11 0-16-1-1 0-2 0-3 0-4 0-8-1-13-2-1 2-1 4-2 6-3 7-6 15-9 22-1 2-2 4-3 6 2 0 4 1 5 2 2 1 4 1 5 2 4 2 7 3 10 5 1 1 2 1 3 2 5 2 9 5 12 7 1 1 2 2 3 2 3 2 5 4 8 6 1 1 2 2 3 3 2 2 4 4 6 6 1 1 2 2 3 2 2 3 4 5 6 7 0 1 1 1 1 2 2 2 4 5 6 7 15-19 23-43 23-68 0-7 0-14-2-21z m-109 132c29 0 56-10 76-30 0 0 0-1 0-1-1-1-2-2-2-2-1-2-3-4-4-5-1-1-2-2-2-3-2-2-3-3-5-5-1-1-2-2-3-3-1-1-3-3-5-5-1-1-2-1-3-2-3-3-6-5-9-7 0-1-1-1-1-1-3-2-6-4-10-6-1-1-3-2-4-2-3-2-5-3-8-5-2 0-4-1-5-2-2 0-3-1-5-2 0 1-1 2-1 3-3 7-7 14-10 20 0 0-1 1-1 1-3 6-6 12-9 17-1 2-2 3-2 4-3 6-6 11-9 15-1 2-2 3-2 4-3 4-5 8-8 11 0 1 0 1 0 2 10 3 21 4 32 4z m-49-11c0 0 1 0 1 0 2-4 5-8 8-13 0-1 1-2 2-3 3-5 6-10 9-15 0-1 1-2 1-2 3-6 6-11 9-17 1-1 1-2 2-3 3-7 7-13 10-20 0-1 0-1 1-2-6-1-11-3-17-4 0 0-1 0-2 0-17-4-36-5-56-4-2 0-3 0-5 0-8 1-16 2-24 3 7 35 29 65 61 80z m-62-100c0 1 0 2 0 2 2 0 4 0 6 0 6-1 13-1 19-2 3 0 7 0 10 0 3 0 5 0 7 0 0 0 0 0 0 0 5 0 9 0 13 0 2 0 4 0 6 0 8 1 16 2 24 3 2 0 4 1 6 1 6 1 12 3 17 4 2 1 3 1 4 1 1-2 2-4 2-5 3-7 6-14 9-21 1-2 1-4 2-5-2-1-3-2-5-2-2-1-4-1-6-2-4-2-7-3-11-4-1-1-3-2-5-3-4-2-8-4-12-6 0 0-1-1-2-1-5-3-9-6-13-8-1-1-2-2-4-3-3-2-5-4-8-6-1-2-3-3-4-4-2-2-4-4-7-6-1-1-2-2-3-3-2-2-4-4-6-6-1-1-2-2-3-4-1 0-1-1-2-1-22 21-34 50-34 81z m48-92c0 1 0 1 1 1 1 1 2 2 3 3 1 2 3 4 5 6 1 1 2 2 3 3 2 2 4 3 6 5 1 1 3 2 4 3 2 2 5 4 7 6 1 1 2 2 4 3 3 2 6 4 10 6 0 0 1 1 2 1 4 3 8 5 13 7 1 1 2 1 4 2 3 1 6 3 10 4 2 0 4 1 5 2 2 0 4 1 6 1 4-10 7-20 10-30 1-1 1-1 1-2 3-11 6-22 9-33-34-13-73-8-103 12z m119-4c-3 10-6 20-8 30-1 0-1 0-1 1-3 10-6 20-10 30 3 0 5 1 7 1 2 0 4 0 6 0 6 1 12 1 18 1 0 0 1 0 1 0 7 0 14-1 21-2 1 0 3 0 5-1 3 0 7-1 10-2-9-24-26-45-49-58z"/>
<glyph unicode="&#57470;" d="M440 0l-368 0 0 376 368 0z m-352 16l336 0 0 344-336 0z m256 304l-16 0 0 104c0 40-32 72-72 72-40 0-72-32-72-72l0-104-16 0 0 104c0 49 39 88 88 88 49 0 88-39 88-88z"/>
<glyph unicode="&#57471;" d="M440 0l-368 0 0 376 368 0z m-352 16l336 0 0 344-336 0z m158 114l-12 0-56 56 12 12 50-51 98 99 12-12z m98 190l-16 0 0 104c0 40-32 72-72 72-40 0-72-32-72-72l0-104-16 0 0 104c0 49 39 88 88 88 49 0 88-39 88-88z"/>
<glyph unicode="&#57472;" d="M440 0l-368 0 0 376 368 0z m-352 16l336 0 0 344-336 0z m256 304l-16 0 0 104c0 40-32 72-72 72-40 0-72-32-72-72l0-104-16 0 0 104c0 49 39 88 88 88 49 0 88-39 88-88z m-32-200l-112 0c-20 0-32 12-32 32 0 10 9 28 26 31 7 25 32 49 62 49 34 0 60-21 64-49 16-4 24-21 24-31 0-20-12-32-32-32z m-112 48c-11 0-16-12-16-16 0-12 4-16 16-16l112 0c11 0 16 5 16 16 0 4-5 16-16 16l-8 0 0 8c0 26-25 40-48 40-23 0-44-22-48-42l-1-6z"/>
<glyph unicode="&#57473;" d="M262 98l-12 0-64 64 12 12 58-59 58 59 12-12z m-14 166l16 0 0-160-16 0z m192-264l-368 0 0 376 368 0z m-352 16l336 0 0 344-336 0z m256 304l-16 0 0 104c0 40-32 72-72 72-40 0-72-32-72-72l0-104-16 0 0 104c0 49 39 88 88 88 49 0 88-39 88-88z"/>
<glyph unicode="&#57474;" d="M440 0l-368 0 0 376 368 0z m-352 16l336 0 0 344-336 0z m96 168l144 0 0-16-144 0z m160 136l-16 0 0 104c0 40-32 72-72 72-40 0-72-32-72-72l0-104-16 0 0 104c0 49 39 88 88 88 49 0 88-39 88-88z"/>
<glyph unicode="&#57475;" d="M248 248l16 0 0-144-16 0z m-64-64l144 0 0-16-144 0z m256-184l-368 0 0 376 368 0z m-352 16l336 0 0 344-336 0z m256 304l-16 0 0 104c0 40-32 72-72 72-40 0-72-32-72-72l0-104-16 0 0 104c0 49 39 88 88 88 49 0 88-39 88-88z"/>
<glyph unicode="&#57476;" d="M288 96l-32 0c-41 0-72 42-72 80l16 0c0-30 24-64 56-64l32 0z m-18-29l-12 10 20 27-20 27 12 10 24-32 0-10z m74 109l-16 0c0 30-24 64-56 64l-32 0 0 16 32 0c41 0 72-42 72-80z m-86 35l-24 32 0 10 24 32 12-10-20-27 20-27z m182-211l-368 0 0 376 368 0z m-352 16l336 0 0 344-336 0z m256 304l-16 0 0 104c0 40-32 72-72 72-40 0-72-32-72-72l0-104-16 0 0 104c0 49 39 88 88 88 49 0 88-39 88-88z"/>
<glyph unicode="&#57477;" d="M440 0l-368 0 0 376 368 0z m-352 16l336 0 0 344-336 0z m118 222l112-112-12-12-112 112z m100 0l12-12-112-112-12 12z m38 82l-16 0 0 104c0 40-32 72-72 72-40 0-72-32-72-72l0-104-16 0 0 104c0 49 39 88 88 88 49 0 88-39 88-88z"/>
<glyph unicode="&#57478;" d="M232 144c-31 0-56 25-56 56 0 31 25 56 56 56 31 0 56-25 56-56 0-31-25-56-56-56z m0 96c-22 0-40-18-40-40 0-22 18-40 40-40 22 0 40 18 40 40 0 22-18 40-40 40z m38-66l64-64-12-12-64 64z m170-174l-368 0 0 376 368 0z m-352 16l336 0 0 344-336 0z m256 304l-16 0 0 104c0 40-32 72-72 72-40 0-72-32-72-72l0-104-16 0 0 104c0 49 39 88 88 88 49 0 88-39 88-88z"/>
<glyph unicode="&#57479;" d="M314 186l-58 59-58-59-12 12 64 64 12 0 64-64z m-66 70l16 0 0-160-16 0z m192-256l-368 0 0 376 368 0z m-352 16l336 0 0 344-336 0z m256 304l-16 0 0 104c0 40-32 72-72 72-40 0-72-32-72-72l0-104-16 0 0 104c0 49 39 88 88 88 49 0 88-39 88-88z"/>
<glyph unicode="&#57480;" d="M512 120l-512 0 0 272 512 0z m-496 16l480 0 0 240-480 0z m424 16l-368 0 0 8c0 18-14 32-32 32l-8 0 0 128 8 0c18 0 32 14 32 32l0 8 368 0 0-8c0-18 14-32 32-32l8 0 0-128-8 0c-18 0-32-14-32-32z m-353 16l338 0c3 20 19 36 39 39l0 98c-20 3-36 19-39 39l-338 0c-3-20-19-36-39-39l0-98c20-3 36-19 39-39z m169 16c-40 0-72 32-72 72 0 40 32 72 72 72 40 0 72-32 72-72 0-40-32-72-72-72z m0 128c-31 0-56-25-56-56 0-31 25-56 56-56 31 0 56 25 56 56 0 31-25 56-56 56z"/>
<glyph unicode="&#57481;" d="M432 104l-432 0 0 224 432 0z m-416 16l400 0 0 192-400 0z m496 64l-72 0 0 16 56 0 0 192-400 0 0-56-16 0 0 72 432 0z m-144-48l-296 0 0 8c0 12-4 24-32 24l-8 0 0 96 8 0c28 0 32 12 32 24l0 8 296 0 0-8c0-20 13-24 24-24l8 0 0-96-8 0c-11 0-24-4-24-24z m-281 16l266 0c2 20 16 29 31 31l0 66c-15 2-29 11-31 31l-266 0c-2-15-11-29-39-32l0-64c28-3 37-17 39-32z m129 16c-26 0-48 22-48 48 0 26 22 48 48 48 26 0 48-22 48-48 0-26-22-48-48-48z m0 80c-18 0-32-14-32-32 0-18 14-32 32-32 18 0 32 14 32 32 0 18-14 32-32 32z"/>
<glyph unicode="&#57482;" d="M422 32l-332 0-93 288 518 0z m-320 16l308 0 83 256-474 0z m67 427l14-6-64-160-14 6z m174 0l64-160-14-6-64 160z"/>
<glyph unicode="&#57483;" d="M422 32l-332 0-93 288 518 0z m-320 16l308 0 83 256-474 0z m67 427l14-6-64-160-14 6z m174 0l64-160-14-6-64 160z m-97-353l-12 0-56 56 12 12 50-51 98 99 12-12z"/>
<glyph unicode="&#57484;" d="M422 32l-332 0-93 288 518 0z m-320 16l308 0 83 256-474 0z m67 427l14-6-64-160-14 6z m174 0l64-160-14-6-64 160z m-31-355l-112 0c-20 0-32 12-32 32 0 10 9 28 26 31 7 25 32 49 62 49 34 0 60-21 64-49 16-4 24-21 24-31 0-20-12-32-32-32z m-112 48c-11 0-16-12-16-16 0-12 4-16 16-16l112 0c11 0 16 5 16 16 0 4-5 16-16 16l-8 0 0 8c0 26-25 40-48 40-23 0-44-22-48-42l-1-6z"/>
<glyph unicode="&#57485;" d="M422 32l-332 0-93 288 518 0z m-320 16l308 0 83 256-474 0z m67 427l14-6-64-160-14 6z m174 0l64-160-14-6-64 160z m-81-385l-12 0-64 64 12 12 58-59 58 59 12-12z m-14 166l16 0 0-160-16 0z"/>
<glyph unicode="&#57486;" d="M422 32l-332 0-93 288 518 0z m-320 16l308 0 83 256-474 0z m67 427l14-6-64-160-14 6z m174 0l64-160-14-6-64 160z m-159-299l144 0 0-16-144 0z"/>
<glyph unicode="&#57487;" d="M422 32l-332 0-93 288 518 0z m-320 16l308 0 83 256-474 0z m67 427l14-6-64-160-14 6z m174 0l64-160-14-6-64 160z m-95-235l16 0 0-144-16 0z m-64-64l144 0 0-16-144 0z"/>
<glyph unicode="&#57488;" d="M422 32l-332 0-93 288 518 0z m-320 16l308 0 83 256-474 0z m67 427l14-6-64-160-14 6z m174 0l64-160-14-6-64 160z m-63-379l-32 0c-41 0-72 42-72 80l16 0c0-30 24-64 56-64l32 0z m-18-29l-12 10 20 27-20 27 12 10 24-32 0-10z m74 109l-16 0c0 30-24 64-56 64l-32 0 0 16 32 0c41 0 72-42 72-80z m-86 35l-24 32 0 10 24 32 12-10-20-27 20-27z"/>
<glyph unicode="&#57489;" d="M422 32l-332 0-93 288 518 0z m-320 16l308 0 83 256-474 0z m67 427l14-6-64-160-14 6z m174 0l64-160-14-6-64 160z m-137-245l112-112-12-12-112 112z m100 0l12-12-112-112-12 12z"/>
<glyph unicode="&#57490;" d="M422 32l-332 0-93 288 518 0z m-320 16l308 0 83 256-474 0z m67 427l14-6-64-160-14 6z m174 0l64-160-14-6-64 160z m-111-339c-31 0-56 25-56 56 0 31 25 56 56 56 31 0 56-25 56-56 0-31-25-56-56-56z m0 96c-22 0-40-18-40-40 0-22 18-40 40-40 22 0 40 18 40 40 0 22-18 40-40 40z m38-66l64-64-12-12-64 64z"/>
<glyph unicode="&#57491;" d="M422 32l-332 0-93 288 518 0z m-320 16l308 0 83 256-474 0z m67 427l14-6-64-160-14 6z m174 0l64-160-14-6-64 160z m-29-297l-58 59-58-59-12 12 64 64 12 0 64-64z m-66 70l16 0 0-160-16 0z"/>
<glyph unicode="&#57492;" d="M256 0c-68 0-133 27-181 75-48 48-75 113-75 181 0 68 27 133 75 181 48 48 113 75 181 75 68 0 133-27 181-75 48-48 75-113 75-181 0-68-27-133-75-181-48-48-113-75-181-75z m0 496c-64 0-124-25-170-70-45-46-70-106-70-170 0-64 25-124 70-170 46-45 106-70 170-70 64 0 124 25 170 70 45 46 70 106 70 170 0 64-25 124-70 170-46 45-106 70-170 70z m-72-112l16 0 0-256-16 0z m57-128c-4 0-6 0-6 0l-43 0 0 16 44 0c1 0 30-2 47 13 9 8 13 20 13 35 0 15-4 27-13 35-17 15-46 13-47 13l-44 0 0 16 44 0c0 0 35 3 58-18 12-11 18-26 18-46 0-20-6-35-18-46-18-16-42-18-53-18z m7-128c-4 0-7 0-7 0l-49 0 0 16 50 0c1 0 34-3 55 16 10 9 15 23 15 40 0 17-5 31-15 40-21 19-54 16-55 16l-50 0 0 16 50 0c1 0 40 3 65-20 14-12 21-30 21-52 0-22-7-40-21-52-19-18-47-20-59-20z m-16 280l16 0 0-312-16 0z"/>
<glyph unicode="&#57493;" d="M160 0c-31 0-56 25-56 56 0 31 25 56 56 56 31 0 56-25 56-56 0-31-25-56-56-56z m0 96c-22 0-40-18-40-40 0-22 18-40 40-40 22 0 40 18 40 40 0 22-18 40-40 40z m192-96c-31 0-56 25-56 56 0 31 25 56 56 56 31 0 56-25 56-56 0-31-25-56-56-56z m0 96c-22 0-40-18-40-40 0-22 18-40 40-40 22 0 40 18 40 40 0 22-18 40-40 40z m-144-32l96 0 0-16-96 0z m-104-9l-31 433-73 0 0 16 87 0 33-447z m1 105l-2 16 339 24 52 224-406 0 0 16 426 0-60-256z m159 269l-14 43-68 0-14-43-16 6 18 53 92 0 18-53z m176 0l-22 67-120 0-38-23-8 14 42 25 136 0 26-77z"/>
<glyph unicode="&#57494;" d="M160 0c-31 0-56 25-56 56 0 31 25 56 56 56 31 0 56-25 56-56 0-31-25-56-56-56z m0 96c-22 0-40-18-40-40 0-22 18-40 40-40 22 0 40 18 40 40 0 22-18 40-40 40z m192-96c-31 0-56 25-56 56 0 31 25 56 56 56 31 0 56-25 56-56 0-31-25-56-56-56z m0 96c-22 0-40-18-40-40 0-22 18-40 40-40 22 0 40 18 40 40 0 22-18 40-40 40z m-144-32l96 0 0-16-96 0z m-104-9l-31 433-73 0 0 16 87 0 33-447z m1 105l-2 16 339 24 52 224-406 0 0 16 426 0-60-256z m173 98l-12 0-56 56 12 12 50-51 98 99 12-12z"/>
<glyph unicode="&#57495;" d="M160 0c-31 0-56 25-56 56 0 31 25 56 56 56 31 0 56-25 56-56 0-31-25-56-56-56z m0 96c-22 0-40-18-40-40 0-22 18-40 40-40 22 0 40 18 40 40 0 22-18 40-40 40z m192-96c-31 0-56 25-56 56 0 31 25 56 56 56 31 0 56-25 56-56 0-31-25-56-56-56z m0 96c-22 0-40-18-40-40 0-22 18-40 40-40 22 0 40 18 40 40 0 22-18 40-40 40z m-144-32l96 0 0-16-96 0z m-104-9l-31 433-73 0 0 16 87 0 33-447z m1 105l-2 16 339 24 52 224-406 0 0 16 426 0-60-256z m239 96l-112 0c-20 0-32 12-32 32 0 10 9 28 26 31 7 25 32 49 62 49 34 0 60-21 64-49 16-4 24-21 24-31 0-20-12-32-32-32z m-112 48c-11 0-16-12-16-16 0-12 4-16 16-16l112 0c11 0 16 5 16 16 0 4-5 16-16 16l-8 0 0 8c0 26-25 40-48 40-23 0-44-22-48-42l-1-6z"/>
<glyph unicode="&#57496;" d="M160 0c-31 0-56 25-56 56 0 31 25 56 56 56 31 0 56-25 56-56 0-31-25-56-56-56z m0 96c-22 0-40-18-40-40 0-22 18-40 40-40 22 0 40 18 40 40 0 22-18 40-40 40z m192-96c-31 0-56 25-56 56 0 31 25 56 56 56 31 0 56-25 56-56 0-31-25-56-56-56z m0 96c-22 0-40-18-40-40 0-22 18-40 40-40 22 0 40 18 40 40 0 22-18 40-40 40z m-144-32l96 0 0-16-96 0z m-104-9l-31 433-73 0 0 16 87 0 33-447z m1 105l-2 16 339 24 52 224-406 0 0 16 426 0-60-256z"/>
<glyph unicode="&#57497;" d="M160 0c-31 0-56 25-56 56 0 31 25 56 56 56 31 0 56-25 56-56 0-31-25-56-56-56z m0 96c-22 0-40-18-40-40 0-22 18-40 40-40 22 0 40 18 40 40 0 22-18 40-40 40z m192-96c-31 0-56 25-56 56 0 31 25 56 56 56 31 0 56-25 56-56 0-31-25-56-56-56z m0 96c-22 0-40-18-40-40 0-22 18-40 40-40 22 0 40 18 40 40 0 22-18 40-40 40z m-144-32l96 0 0-16-96 0z m-104-9l-31 433-73 0 0 16 87 0 33-447z m1 105l-2 16 339 24 52 224-406 0 0 16 426 0-60-256z m189 66l-12 0-64 64 12 12 58-59 58 59 12-12z m-14 166l16 0 0-160-16 0z"/>
<glyph unicode="&#57498;" d="M160 0c-31 0-56 25-56 56 0 31 25 56 56 56 31 0 56-25 56-56 0-31-25-56-56-56z m0 96c-22 0-40-18-40-40 0-22 18-40 40-40 22 0 40 18 40 40 0 22-18 40-40 40z m192-96c-31 0-56 25-56 56 0 31 25 56 56 56 31 0 56-25 56-56 0-31-25-56-56-56z m0 96c-22 0-40-18-40-40 0-22 18-40 40-40 22 0 40 18 40 40 0 22-18 40-40 40z m-144-32l96 0 0-16-96 0z m-104-9l-31 433-73 0 0 16 87 0 33-447z m1 105l-2 16 339 24 52 224-406 0 0 16 426 0-60-256z m111 152l144 0 0-16-144 0z"/>
<glyph unicode="&#57499;" d="M160 0c-31 0-56 25-56 56 0 31 25 56 56 56 31 0 56-25 56-56 0-31-25-56-56-56z m0 96c-22 0-40-18-40-40 0-22 18-40 40-40 22 0 40 18 40 40 0 22-18 40-40 40z m192-96c-31 0-56 25-56 56 0 31 25 56 56 56 31 0 56-25 56-56 0-31-25-56-56-56z m0 96c-22 0-40-18-40-40 0-22 18-40 40-40 22 0 40 18 40 40 0 22-18 40-40 40z m-144-32l96 0 0-16-96 0z m-104-9l-31 433-73 0 0 16 87 0 33-447z m1 105l-2 16 339 24 52 224-406 0 0 16 426 0-60-256z m175 216l16 0 0-144-16 0z m-64-64l144 0 0-16-144 0z"/>
<glyph unicode="&#57500;" d="M160 0c-31 0-56 25-56 56 0 31 25 56 56 56 31 0 56-25 56-56 0-31-25-56-56-56z m0 96c-22 0-40-18-40-40 0-22 18-40 40-40 22 0 40 18 40 40 0 22-18 40-40 40z m192-96c-31 0-56 25-56 56 0 31 25 56 56 56 31 0 56-25 56-56 0-31-25-56-56-56z m0 96c-22 0-40-18-40-40 0-22 18-40 40-40 22 0 40 18 40 40 0 22-18 40-40 40z m-144-32l96 0 0-16-96 0z m-104-9l-31 433-73 0 0 16 87 0 33-447z m1 105l-2 16 339 24 52 224-406 0 0 16 426 0-60-256z m215 64l-32 0c-41 0-72 42-72 80l16 0c0-30 24-64 56-64l32 0z m-18-29l-12 10 20 27-20 27 12 10 24-32 0-10z m74 109l-16 0c0 30-24 64-56 64l-32 0 0 16 32 0c41 0 72-42 72-80z m-86 35l-24 32 0 10 24 32 12-10-20-27 20-27z"/>
<glyph unicode="&#57501;" d="M160 0c-31 0-56 25-56 56 0 31 25 56 56 56 31 0 56-25 56-56 0-31-25-56-56-56z m0 96c-22 0-40-18-40-40 0-22 18-40 40-40 22 0 40 18 40 40 0 22-18 40-40 40z m192-96c-31 0-56 25-56 56 0 31 25 56 56 56 31 0 56-25 56-56 0-31-25-56-56-56z m0 96c-22 0-40-18-40-40 0-22 18-40 40-40 22 0 40 18 40 40 0 22-18 40-40 40z m-144-32l96 0 0-16-96 0z m-104-9l-31 433-73 0 0 16 87 0 33-447z m1 105l-2 16 339 24 52 224-406 0 0 16 426 0-60-256z m133 206l112-112-12-12-112 112z m100 0l12-12-112-112-12 12z"/>
<glyph unicode="&#57502;" d="M160 0c-31 0-56 25-56 56 0 31 25 56 56 56 31 0 56-25 56-56 0-31-25-56-56-56z m0 96c-22 0-40-18-40-40 0-22 18-40 40-40 22 0 40 18 40 40 0 22-18 40-40 40z m192-96c-31 0-56 25-56 56 0 31 25 56 56 56 31 0 56-25 56-56 0-31-25-56-56-56z m0 96c-22 0-40-18-40-40 0-22 18-40 40-40 22 0 40 18 40 40 0 22-18 40-40 40z m-144-32l96 0 0-16-96 0z m-104-9l-31 433-73 0 0 16 87 0 33-447z m1 105l-2 16 339 24 52 224-406 0 0 16 426 0-60-256z m159 112c-31 0-56 25-56 56 0 31 25 56 56 56 31 0 56-25 56-56 0-31-25-56-56-56z m0 96c-22 0-40-18-40-40 0-22 18-40 40-40 22 0 40 18 40 40 0 22-18 40-40 40z m38-66l64-64-12-12-64 64z"/>
<glyph unicode="&#57503;" d="M160 0c-31 0-56 25-56 56 0 31 25 56 56 56 31 0 56-25 56-56 0-31-25-56-56-56z m0 96c-22 0-40-18-40-40 0-22 18-40 40-40 22 0 40 18 40 40 0 22-18 40-40 40z m192-96c-31 0-56 25-56 56 0 31 25 56 56 56 31 0 56-25 56-56 0-31-25-56-56-56z m0 96c-22 0-40-18-40-40 0-22 18-40 40-40 22 0 40 18 40 40 0 22-18 40-40 40z m-144-32l96 0 0-16-96 0z m-104-9l-31 433-73 0 0 16 87 0 33-447z m1 105l-2 16 339 24 52 224-406 0 0 16 426 0-60-256z m241 154l-58 59-58-59-12 12 64 64 12 0 64-64z m-66 70l16 0 0-160-16 0z"/>
<glyph unicode="&#57504;" d="M256 0c-68 0-133 27-181 75-48 48-75 113-75 181 0 68 27 133 75 181 48 48 113 75 181 75 68 0 133-27 181-75 48-48 75-113 75-181 0-68-27-133-75-181-48-48-113-75-181-75z m0 496c-64 0-124-25-170-70-45-46-70-106-70-170 0-64 25-124 70-170 46-45 106-70 170-70 64 0 124 25 170 70 45 46 70 106 70 170 0 64-25 124-70 170-46 45-106 70-170 70z m0-368c-67 0-104 45-104 128 0 83 37 128 104 128 77 0 87-37 88-38l-16-4c0 0-8 26-72 26-73 0-88-61-88-112 0-51 15-112 88-112 64 0 72 26 72 26l16-4c-1-1-11-38-88-38z m-8 288l16 0 0-320-16 0z"/>
<glyph unicode="&#57505;" d="M256 0c-68 0-133 27-181 75-48 48-75 113-75 181 0 68 27 133 75 181 48 48 113 75 181 75 68 0 133-27 181-75 48-48 75-113 75-181 0-68-27-133-75-181-48-48-113-75-181-75z m0 496c-64 0-124-25-170-70-45-46-70-106-70-170 0-64 25-124 70-170 46-45 106-70 170-70 64 0 124 25 170 70 45 46 70 106 70 170 0 64-25 124-70 170-46 45-106 70-170 70z m0-368c-67 0-104 45-104 128 0 83 37 128 104 128 77 0 87-37 88-38l-16-4c0 0-8 26-72 26-73 0-88-61-88-112 0-51 15-112 88-112 64 0 72 26 72 26l16-4c-1-1-11-38-88-38z m25 275l14-6-120-280-14 6z m40 0l14-6-120-280-14 6z"/>
<glyph unicode="&#57506;" d="M512 80l-512 0 0 352 512 0z m-496 16l480 0 0 320-480 0z m-8 288l496 0 0-16-496 0z m0-64l496 0 0-16-496 0z m40-176l32 0 0-16-32 0z m48 0l232 0 0-16-232 0z"/>
<glyph unicode="&#57507;" d="M256 37l-259 258 143 177 232 0 143-177z m8 419l0-389 229 230-129 159z m-245-159l229-230 0 389-100 0z m230-244l-114 242 49 171 16-4-47-165 110-238z m14 0l-14 6 110 238-47 165 16 4 49-171z m-255 251l496 0 0-16-496 0z"/>
<glyph unicode="&#57508;" d="M232 408l16 0 0-312-16 0z m32 0l16 0 0-312-16 0z m-8-272c-33 0-56 6-69 19-11 12-11 24-11 29l16 0c0-4 0-11 7-17 6-7 22-15 57-15 30 0 51 6 62 17 11 11 10 26 10 35 0 2 0 3 0 4 0 0-2 48-72 48-67 0-72 57-72 63 0 4-2 26 13 43 12 15 32 22 59 22 79 0 80-55 80-56l-16 0 8 0-8 0c0 2-2 40-64 40-22 0-38-5-47-16-11-13-9-31-9-31l0-1c0-2 1-48 56-48 86 0 88-63 88-64 0-1 0-2 0-3 0-11 1-31-14-47-15-15-39-22-74-22z m0-136c-68 0-133 27-181 75-48 48-75 113-75 181 0 68 27 133 75 181 48 48 113 75 181 75 68 0 133-27 181-75 48-48 75-113 75-181 0-68-27-133-75-181-48-48-113-75-181-75z m0 496c-64 0-124-25-170-70-45-46-70-106-70-170 0-64 25-124 70-170 46-45 106-70 170-70 64 0 124 25 170 70 45 46 70 106 70 170 0 64-25 124-70 170-46 45-106 70-170 70z"/>
<glyph unicode="&#57509;" d="M256 0c-68 0-133 27-181 75-48 48-75 113-75 181 0 68 27 133 75 181 48 48 113 75 181 75 68 0 133-27 181-75 48-48 75-113 75-181 0-68-27-133-75-181-48-48-113-75-181-75z m0 496c-64 0-124-25-170-70-45-46-70-106-70-170 0-64 25-124 70-170 46-45 106-70 170-70 64 0 124 25 170 70 45 46 70 106 70 170 0 64-25 124-70 170-46 45-106 70-170 70z m0-368c-67 0-104 45-104 128 0 83 37 128 104 128 77 0 87-37 88-38l-16-4c0 0-8 26-72 26-73 0-88-61-88-112 0-51 15-112 88-112 64 0 72 26 72 26l16-4c-1-1-11-38-88-38z m-136 152l152 0 0-16-152 0z m0-32l152 0 0-16-152 0z"/>
<glyph unicode="&#57510;" d="M256 0c-68 0-133 27-181 75-48 48-75 113-75 181 0 68 27 133 75 181 48 48 113 75 181 75 68 0 133-27 181-75 48-48 75-113 75-181 0-68-27-133-75-181-48-48-113-75-181-75z m0 496c-64 0-124-25-170-70-45-46-70-106-70-170 0-64 25-124 70-170 46-45 106-70 170-70 64 0 124 25 170 70 45 46 70 106 70 170 0 64-25 124-70 170-46 45-106 70-170 70z m-48-368l-16 0 0 248 136 0 0-16-120 0z m-8 136l112 0 0-16-112 0z m-40-48l112 0 0-16-112 0z"/>
<glyph unicode="&#57511;" d="M512 288l-512 0 0 88 512 0z m-496 16l480 0 0 56-480 0z m456-264l-432 0 0 264 432 0z m-416 16l400 0 0 232-400 0z m192 312l16 0 0-320-16 0z m8-8c-3 0-30 0-56 10-37 13-56 37-56 70 0 25 18 41 46 41 35 0 74-24 74-57l0-64z m-66 105c-11 0-30-4-30-25 0-53 65-62 88-64l0 48c0 23-31 41-58 41z m66-105l-8 0 0 64c0 33 39 57 74 57 28 0 46-16 46-41 0-33-19-57-56-70-26-10-53-10-56-10z m66 105c-27 0-58-18-58-41l0-48c10 1 27 3 43 9 30 11 45 29 45 55 0 21-19 25-30 25z"/>
<glyph unicode="&#57512;" d="M224 0c-60 0-116 23-158 66-43 42-66 98-66 158 0 60 23 116 65 158 43 43 99 66 159 66l8 0 0-216 216 0 0-8c0-60-23-116-66-158-42-43-98-66-158-66 0 0 0 0 0 0z m-8 432c-53-2-102-24-139-61-39-39-61-91-61-147 0-56 22-108 61-147 39-39 91-61 147-61 0 0 0 0 0 0l0 0c56 0 108 22 147 61 37 37 59 86 61 139l-216 0z m296-152l-232 0 0 232 8 0c60 0 116-23 159-66 42-42 65-98 65-158z m-216 16l200 0c-2 53-23 102-61 139-37 37-86 59-139 61z"/>
<glyph unicode="&#57513;" d="M184 0l-112 0 0 288 112 0z m-96 16l80 0 0 256-80 0z m352-16l-112 0 0 208 112 0z m-96 16l80 0 0 176-80 0z m-32-16l-112 0 0 512 112 0z m-96 16l80 0 0 480-80 0z"/>
<glyph unicode="&#57514;" d="M448 208c-18 0-32 14-32 32 0 18 14 32 32 32 18 0 32-14 32-32 0-18-14-32-32-32z m0 48c-9 0-16-7-16-16 0-9 7-16 16-16 9 0 16 7 16 16 0 9-7 16-16 16z m-272 192c-18 0-32 14-32 32 0 18 14 32 32 32 18 0 32-14 32-32 0-18-14-32-32-32z m0 48c-9 0-16-7-16-16 0-9 7-16 16-16 9 0 16 7 16 16 0 9-7 16-16 16z m144-416c-18 0-32 14-32 32 0 18 14 32 32 32 18 0 32-14 32-32 0-18-14-32-32-32z m0 48c-9 0-16-7-16-16 0-9 7-16 16-16 9 0 16 7 16 16 0 9-7 16-16 16z m-264 104c-18 0-32 14-32 32 0 18 14 32 32 32 18 0 32-14 32-32 0-18-14-32-32-32z m0 48c-9 0-16-7-16-16 0-9 7-16 16-16 9 0 16 7 16 16 0 9-7 16-16 16z m97 188l14-8-96-176-14 8z m273-239l12-10-88-96-12 10z m86-229l-512 0 0 64 512 0z m-496 16l480 0 0 32-480 0z m184 451l112-328-16-6-112 328z"/>
<glyph unicode="&#57515;" d="M184 0l-112 0 0 392 112 0z m-96 16l80 0 0 360-80 0z m352-16l-112 0 0 160 112 0z m-96 16l80 0 0 128-80 0z m-32-16l-112 0 0 264 112 0z m-96 16l80 0 0 232-80 0z m-82 494l304-304-12-12-304 304z m298-318l-88 0 0 16 80 0 0 80 16 0 0-88z"/>
<glyph unicode="&#57516;" d="M184 0l-112 0 0 160 112 0z m-96 16l80 0 0 128-80 0z m352-16l-112 0 0 376 112 0z m-96 16l80 0 0 344-80 0z m-32-16l-112 0 0 264 112 0z m-96 16l80 0 0 232-80 0z m186 494l12-12-296-296-12 12z m14-94l-16 0 0 80-80 0 0 16 88 0 8-8z"/>
<glyph unicode="&#57517;" d="M256 0c-68 0-133 27-181 75-48 48-75 113-75 181 0 68 27 133 75 181 48 48 113 75 181 75 68 0 133-27 181-75 48-48 75-113 75-181 0-68-27-133-75-181-48-48-113-75-181-75z m0 496c-64 0-124-25-170-70-45-46-70-106-70-170 0-64 25-124 70-170 46-45 106-70 170-70 64 0 124 25 170 70 45 46 70 106 70 170 0 64-25 124-70 170-46 45-106 70-170 70z m0-368c-67 0-104 45-104 128 0 83 37 128 104 128 77 0 87-37 88-38l-16-4c0 0-8 26-72 26-73 0-88-61-88-112 0-51 15-112 88-112 58 0 70 21 72 25l0 47-40 0 0 16 56 0 0-66c-1-1-11-38-88-38z m-8 288l16 0 0-320-16 0z"/>
<glyph unicode="&#57518;" d="M256 0c-68 0-133 27-181 75-48 48-75 113-75 181 0 68 27 133 75 181 48 48 113 75 181 75 68 0 133-27 181-75 48-48 75-113 75-181 0-68-27-133-75-181-48-48-113-75-181-75z m0 496c-64 0-124-25-170-70-45-46-70-106-70-170 0-64 25-124 70-170 46-45 106-70 170-70 64 0 124 25 170 70 45 46 70 106 70 170 0 64-25 124-70 170-46 45-106 70-170 70z m-64-112l16 0 0-256-16 0z m146-262l-142 142 135 126 10-12-121-114 130-130z m-178 150l152 0 0-16-152 0z"/>
<glyph unicode="&#57519;" d="M256 0c-68 0-133 27-181 75-48 48-75 113-75 181 0 68 27 133 75 181 48 48 113 75 181 75 68 0 133-27 181-75 48-48 75-113 75-181 0-68-27-133-75-181-48-48-113-75-181-75z m0 496c-64 0-124-25-170-70-45-46-70-106-70-170 0-64 25-124 70-170 46-45 106-70 170-70 64 0 124 25 170 70 45 46 70 106 70 170 0 64-25 124-70 170-46 45-106 70-170 70z m72-384l-120 0 0 216c0 40 30 64 80 64 45 0 55-28 56-29l-16-6c0 1-7 19-40 19-24 0-64-6-64-48l0-200 104 0z m-160 16l48 0 0-16-48 0z m0 136l112 0 0-16-112 0z m0-48l112 0 0-16-112 0z"/>
<glyph unicode="&#57520;" d="M512 80l-27 0-124 96-308 0-53 53 0 102 53 53 308 0 124 96 27 0z m-21 16l5 0 0 368-5 0-124-96-308 0-43-43 0-90 43-43 308 0z m-342-64l-65 0 61 155 14-6-51-133 31 0 78 140 14-8z m187 344l16 0 0-192-16 0z m-56 0l16 0 0-192-16 0z"/>
<glyph unicode="&#57521;" d="M352 48c-88 0-160 72-160 160 0 88 72 160 160 160 88 0 160-72 160-160 0-88-72-160-160-160z m0 304c-79 0-144-65-144-144 0-79 65-144 144-144 79 0 144 65 144 144 0 79-65 144-144 144z m0-256c-62 0-112 50-112 112 0 62 50 112 112 112 62 0 112-50 112-112 0-62-50-112-112-112z m0 208c-53 0-96-43-96-96 0-53 43-96 96-96 53 0 96 43 96 96 0 53-43 96-96 96z m-40-256l-312 0 0 64 240 0 0-16-224 0 0-32 296 0z m-72 48l-224 0 0 64 200 0 0-16-184 0 0-32 208 0z m-24 48l-184 0 0 64 176 0 0-16-160 0 0-32 168 0z m-8 48l-208 0 0 64 208 0 0-16-192 0 0-32 192 0z m0 48l-192 0 0 64 216 0 0-16-200 0 0-32 176 0z m24 48l-232 0 0 64 280 0 0-16-264 0 0-32 216 0z m48 48l-264 0 0 64 312 0 0-48-16 0 0 32-280 0 0-32 248 0z m32 48l-312 0 0 64 312 0z m-296 16l280 0 0 32-280 0z"/>
<glyph unicode="&#57522;" d="M256 0c-68 0-133 27-181 75-48 48-75 113-75 181 0 68 27 133 75 181 48 48 113 75 181 75 68 0 133-27 181-75 48-48 75-113 75-181 0-68-27-133-75-181-48-48-113-75-181-75z m0 496c-64 0-124-25-170-70-45-46-70-106-70-170 0-64 25-124 70-170 46-45 106-70 170-70 64 0 124 25 170 70 45 46 70 106 70 170 0 64-25 124-70 170-46 45-106 70-170 70z m72-376l-21 0-123 231 0-231-16 0 0 256 21 0 123-231 0 231 16 0z m-192 160l224 0 0-16-224 0z m0-48l224 0 0-16-224 0z"/>
<glyph unicode="&#57523;" d="M256 0c-68 0-133 27-181 75-48 48-75 113-75 181 0 68 27 133 75 181 48 48 113 75 181 75 68 0 133-27 181-75 48-48 75-113 75-181 0-68-27-133-75-181-48-48-113-75-181-75z m0 496c-64 0-124-25-170-70-45-46-70-106-70-170 0-64 25-124 70-170 46-45 106-70 170-70 64 0 124 25 170 70 45 46 70 106 70 170 0 64-25 124-70 170-46 45-106 70-170 70z m-72-112l16 0 0-256-16 0z m71-160c-5 0-7 0-8 0l-55 0 0 16 56 0c1 0 39-3 62 18 12 11 18 26 18 46 0 20-6 35-18 46-23 21-61 18-61 18l-57 0 0 16 56 0c1 0 45 4 73-22 15-14 23-33 23-58 0-25-8-44-23-58-22-20-52-22-66-22z m-103 104l224 0 0-16-224 0z m0-32l224 0 0-16-224 0z"/>
</font>
</defs>
</svg>
